<svg width="200" height="36" viewBox="0 0 200 36" fill="none" xmlns="http://www.w3.org/2000/svg">
    <rect x="4.06543" y="10.144" width="13.2112" height="16.2599" fill="white"/>
    <path d="M21.6753 28.0932C21.6753 27.0841 21.9364 26.4113 22.4587 25.9067C22.981 25.4022 23.7644 25.1499 24.809 25.1499C25.7665 25.1499 26.5499 25.4022 27.0721 25.9067C27.5944 26.4113 27.8556 27.1682 27.8556 28.0932C27.8556 29.0182 27.5944 29.691 27.0721 30.2796C26.5499 30.7842 25.7665 31.0365 24.809 31.0365C23.7644 31.0365 23.068 30.7842 22.4587 30.2796C21.9364 29.7751 21.6753 29.0182 21.6753 28.0932Z" fill="#266DD3"/>
    <path d="M49.444 30.6172L47.529 24.5624H37.9539L36.0389 30.6172H30.0327L39.3467 5.13672H46.1362L55.4502 30.6172H49.444ZM46.2233 20.0213C44.4824 14.5552 43.4378 11.4438 43.2637 10.771C43.0896 10.0983 42.9155 9.5096 42.8285 9.08913C42.3933 10.6028 41.2617 14.2189 39.4337 20.1054H46.2233V20.0213Z" fill="#266DD3"/>
    <path d="M81.9977 30.6161H74.9469L63.5439 11.4427H63.3698C63.6309 14.8064 63.718 17.2451 63.718 18.6747V30.6161H58.7563V5.21973H65.8071L77.2101 24.2249H77.2972C77.1231 20.9453 77.036 18.5906 77.036 17.2451V5.21973H82.0847V30.6161H81.9977Z" fill="#266DD3"/>
    <path d="M98.7117 30.6161H93.1407V9.6767H86.0029V5.21973H105.849V9.6767H98.7117V30.6161Z" fill="#266DD3"/>
    <path d="M125 30.6161H109.854V5.21973H125V9.5926H115.424V15.2269H124.303V19.5998H115.424V26.1591H125V30.6161Z" fill="#266DD3"/>
    <path d="M18.1926 8.49987C15.8424 6.31343 12.5346 5.22021 8.18233 5.22021H0V30.5325H7.39892C12.0124 30.5325 15.5813 29.4392 18.0185 27.1687C20.4558 24.9823 21.6745 21.7867 21.6745 17.582C21.7615 13.7137 20.6299 10.6863 18.1926 8.49987ZM15.8424 15.816C15.7553 16.5729 15.5813 17.3297 15.146 17.9184C14.6237 18.6752 14.4497 19.5162 14.4497 20.3571C14.4497 21.3662 14.3626 22.4595 14.0144 23.3845C13.8403 23.9731 13.4921 24.4777 12.9699 24.73C12.7087 24.8141 12.4476 24.8982 12.1865 24.9823C11.6642 24.9823 11.403 24.8141 11.316 24.3095C11.2289 24.0572 11.2289 23.7209 11.2289 23.4686C11.2289 22.5435 11.2289 21.6185 10.8808 20.6935C10.7937 20.4412 10.7067 20.1889 10.5326 19.9366C10.2714 19.5162 9.74916 19.4321 9.48803 19.9366C9.22689 20.4412 9.0528 20.9458 8.96575 21.5344C8.8787 22.2072 8.8787 22.8799 8.79166 23.5527C8.79166 23.805 8.79166 23.9731 8.70461 24.2254C8.53052 24.8982 8.00824 25.2345 7.31187 24.9823C6.70255 24.8141 6.26732 24.3936 6.00618 23.805C5.57095 22.964 5.48391 21.9549 5.39686 21.0299C5.39686 20.6935 5.39686 20.273 5.39686 19.9366C5.39686 19.1798 5.04868 18.507 4.61344 17.8343C4.00412 16.8252 3.83003 15.7319 4.00412 14.6387C4.17821 13.3773 5.13572 12.4523 6.6155 12.2C7.05073 12.1159 7.39892 12.1159 8.00824 12.0318C8.53052 12.1159 9.13984 12.2841 9.66212 12.3682C9.83621 12.3682 9.92326 12.3682 10.0973 12.3682C11.2289 12.0318 12.2735 12.0318 13.4051 12.2841C15.2331 12.7046 16.0165 13.966 15.8424 15.816Z" fill="#266DD3"/>
    <path d="M144.608 10V1.996H137.936V10H138.932V2.884H143.612V10H144.608ZM148.975 10.144C150.739 10.144 151.843 8.776 151.843 7.096C151.843 5.416 150.739 4.06 148.975 4.06C147.211 4.06 146.107 5.416 146.107 7.096C146.107 8.776 147.211 10.144 148.975 10.144ZM148.975 9.34C147.739 9.34 147.043 8.284 147.043 7.096C147.043 5.92 147.739 4.864 148.975 4.864C150.211 4.864 150.895 5.92 150.895 7.096C150.895 8.284 150.211 9.34 148.975 9.34ZM154.174 10L157.234 5.488V10H158.134V4.204H157.246L154.21 8.632V4.204H153.31V10H154.174ZM157.822 2.488L157.378 2.104C157.006 2.644 156.418 2.968 155.722 2.968C155.014 2.968 154.438 2.632 154.054 2.104L153.61 2.488C154.102 3.136 154.87 3.544 155.722 3.544C156.586 3.544 157.342 3.136 157.822 2.488ZM165.847 10V4.204H164.647L162.895 8.5L161.119 4.204H159.931V10H160.831V5.452L162.727 10H163.063L164.947 5.452V10H165.847ZM170.258 10.144C171.206 10.144 171.986 9.832 172.562 9.256L172.13 8.668C171.674 9.136 171.002 9.4 170.342 9.4C169.094 9.4 168.326 8.488 168.254 7.396H172.946V7.168C172.946 5.428 171.914 4.06 170.162 4.06C168.506 4.06 167.306 5.416 167.306 7.096C167.306 8.908 168.542 10.144 170.258 10.144ZM172.058 6.736H168.254C168.302 5.848 168.914 4.804 170.15 4.804C171.47 4.804 172.046 5.872 172.058 6.736ZM180.32 10V4.204H179.12L177.368 8.5L175.592 4.204H174.404V10H175.304V5.452L177.2 10H177.536L179.42 5.452V10H180.32ZM182.595 10.12C182.955 10.12 183.255 9.82 183.255 9.46C183.255 9.1 182.955 8.8 182.595 8.8C182.235 8.8 181.935 9.1 181.935 9.46C181.935 9.82 182.235 10.12 182.595 10.12ZM141.584 22.144C143.948 22.144 145.556 20.368 145.556 18.004C145.556 15.64 143.948 13.864 141.584 13.864C139.208 13.864 137.612 15.64 137.612 18.004C137.612 20.368 139.208 22.144 141.584 22.144ZM141.584 21.256C139.784 21.256 138.644 19.864 138.644 18.004C138.644 16.132 139.784 14.752 141.584 14.752C143.372 14.752 144.524 16.132 144.524 18.004C144.524 19.864 143.372 21.256 141.584 21.256ZM149.608 21.34C148.372 21.34 147.676 20.284 147.676 19.084C147.676 17.92 148.372 16.864 149.608 16.864C150.844 16.864 151.528 17.92 151.528 19.084C151.528 20.284 150.844 21.34 149.608 21.34ZM149.608 22.144C151.396 22.144 152.464 20.752 152.464 19.084C152.464 17.44 151.396 16.06 149.752 16.06C148.72 16.06 147.988 16.636 147.568 17.296C147.772 16.312 148.288 15.568 150.004 15.328C150.988 15.196 152.284 14.944 152.284 13.996H151.408C151.408 14.236 151.048 14.392 149.776 14.584C147.76 14.848 146.74 16.012 146.74 18.832C146.74 20.752 147.832 22.144 149.608 22.144ZM158.13 22C159.318 22 159.954 21.184 159.954 20.224C159.954 19.276 159.33 18.448 158.13 18.448H155.958V16.204H153.378V16.996H155.058V22H158.13ZM158.034 19.24C158.694 19.24 159.03 19.66 159.03 20.224C159.03 20.8 158.682 21.208 158.034 21.208H155.958V19.24H158.034ZM162.19 22L163.606 19.756H165.19V22H166.09V16.204H163.03C161.854 16.204 161.194 16.996 161.194 17.98C161.194 18.952 161.818 19.612 162.682 19.72L161.134 22H162.19ZM163.126 18.964C162.466 18.964 162.118 18.556 162.118 17.98C162.118 17.404 162.49 16.996 163.126 16.996H165.19V18.964H163.126ZM170.444 22.144C171.5 22.144 172.124 21.712 172.568 21.136L171.968 20.584C171.584 21.1 171.092 21.34 170.492 21.34C169.256 21.34 168.488 20.38 168.488 19.096C168.488 17.812 169.256 16.864 170.492 16.864C171.092 16.864 171.584 17.092 171.968 17.62L172.568 17.068C172.124 16.492 171.5 16.06 170.444 16.06C168.716 16.06 167.552 17.38 167.552 19.096C167.552 20.824 168.716 22.144 170.444 22.144ZM174.73 22V19.408H177.754V22H178.654V16.204H177.754V18.616H174.73V16.204H173.83V22H174.73ZM181.315 22L184.375 17.488V22H185.275V16.204H184.387L181.351 20.632V16.204H180.451V22H181.315ZM192.988 22V16.204H191.788L190.036 20.5L188.26 16.204H187.072V22H187.972V17.452L189.868 22H190.204L192.088 17.452V22H192.988ZM195.263 22.12C195.623 22.12 195.923 21.82 195.923 21.46C195.923 21.1 195.623 20.8 195.263 20.8C194.903 20.8 194.603 21.1 194.603 21.46C194.603 21.82 194.903 22.12 195.263 22.12ZM141.728 34.144C143.144 34.144 144.104 33.472 144.776 32.56L143.924 32.092C143.468 32.776 142.64 33.256 141.728 33.256C139.976 33.256 138.644 31.9 138.644 30.004C138.644 28.096 139.976 26.752 141.728 26.752C142.64 26.752 143.468 27.244 143.924 27.916L144.764 27.448C144.128 26.548 143.144 25.864 141.728 25.864C139.424 25.864 137.612 27.544 137.612 30.004C137.612 32.464 139.424 34.144 141.728 34.144ZM145.29 35.476H146.19V34H150.57V35.476H151.47V33.208H150.798V28.204H146.766L146.394 31.06C146.166 32.776 145.83 33.16 145.29 33.256V35.476ZM147.558 28.996H149.898V33.208H146.454C146.874 32.872 147.15 32.26 147.294 31.168L147.558 28.996ZM155.317 34.144C156.265 34.144 157.045 33.832 157.621 33.256L157.189 32.668C156.733 33.136 156.061 33.4 155.401 33.4C154.153 33.4 153.385 32.488 153.313 31.396H158.005V31.168C158.005 29.428 156.973 28.06 155.221 28.06C153.565 28.06 152.365 29.416 152.365 31.096C152.365 32.908 153.601 34.144 155.317 34.144ZM157.117 30.736H153.313C153.361 29.848 153.973 28.804 155.209 28.804C156.529 28.804 157.105 29.872 157.117 30.736ZM158.779 34.144C159.895 34.144 160.519 33.328 160.783 31.168L161.047 28.996H163.387V34H164.287V28.204H160.255L159.883 31.06C159.655 32.776 159.319 33.4 158.779 33.4V34.144ZM170.608 34V30.016C170.608 28.612 169.588 28.06 168.364 28.06C167.416 28.06 166.672 28.372 166.048 29.02L166.468 29.644C166.984 29.092 167.548 28.84 168.244 28.84C169.084 28.84 169.708 29.284 169.708 30.064V31.108C169.24 30.568 168.58 30.316 167.788 30.316C166.804 30.316 165.76 30.928 165.76 32.224C165.76 33.484 166.804 34.144 167.788 34.144C168.568 34.144 169.228 33.868 169.708 33.34V34H170.608ZM168.112 33.496C167.272 33.496 166.684 32.968 166.684 32.236C166.684 31.492 167.272 30.964 168.112 30.964C168.748 30.964 169.36 31.204 169.708 31.684V32.776C169.36 33.256 168.748 33.496 168.112 33.496ZM175.028 34.144C175.976 34.144 176.756 33.832 177.332 33.256L176.9 32.668C176.444 33.136 175.772 33.4 175.112 33.4C173.864 33.4 173.096 32.488 173.024 31.396H177.716V31.168C177.716 29.428 176.684 28.06 174.932 28.06C173.276 28.06 172.076 29.416 172.076 31.096C172.076 32.908 173.312 34.144 175.028 34.144ZM176.828 30.736H173.024C173.072 29.848 173.684 28.804 174.92 28.804C176.24 28.804 176.816 29.872 176.828 30.736ZM185.089 34V28.204H183.889L182.137 32.5L180.361 28.204H179.173V34H180.073V29.452L181.969 34H182.305L184.189 29.452V34H185.089ZM187.364 34.12C187.724 34.12 188.024 33.82 188.024 33.46C188.024 33.1 187.724 32.8 187.364 32.8C187.004 32.8 186.704 33.1 186.704 33.46C186.704 33.82 187.004 34.12 187.364 34.12Z" fill="#4D6F8C"/>
</svg>
