<svg width="195" height="37" viewBox="0 0 195 37" fill="none" xmlns="http://www.w3.org/2000/svg">
<path d="M19.7676 27.8424C19.7676 26.9702 20.0057 26.3887 20.4821 25.9525C20.9584 25.5164 21.6729 25.2983 22.6255 25.2983C23.4988 25.2983 24.2132 25.5164 24.6896 25.9525C25.1659 26.3887 25.404 27.0428 25.404 27.8424C25.404 28.642 25.1659 29.2235 24.6896 29.7323C24.2132 30.1684 23.4988 30.3865 22.6255 30.3865C21.6729 30.3865 21.0378 30.1684 20.4821 29.7323C20.0057 29.2962 19.7676 28.642 19.7676 27.8424Z" fill="#266DD3"/>
<path d="M45.0924 30.0243L43.3459 24.7908H34.6134L32.8668 30.0243H27.3892L35.8835 8H42.0757L50.5701 30.0243H45.0924ZM42.1551 20.8657C40.5674 16.141 39.6147 13.4516 39.4559 12.8701C39.2972 12.2886 39.1384 11.7798 39.059 11.4163C38.6621 12.7247 37.6301 15.8503 35.9629 20.9384H42.1551V20.8657Z" fill="#266DD3"/>
<path d="M74.7822 30.0234H68.3519L57.9522 13.4507H57.7934C58.0316 16.3582 58.111 18.4661 58.111 19.7018V30.0234H53.5859V8.07178H60.0163L70.4159 24.4992H70.4953C70.3365 21.6643 70.2572 19.6291 70.2572 18.4661V8.07178H74.8616V30.0234H74.7822Z" fill="#266DD3"/>
<path d="M90.025 30.0234H84.9443V11.9242H78.4346V8.07178H96.5347V11.9242H90.025V30.0234V30.0234Z" fill="#266DD3"/>
<path d="M114 30.0234H100.187V8.07178H114V11.8515H105.267V16.7216H113.365V20.5013H105.267V26.171H114V30.0234Z" fill="#266DD3"/>
<path d="M16.5918 10.909C14.4484 9.01916 11.4317 8.07422 7.46236 8.07422H0V29.9532H6.74787C10.9554 29.9532 14.2102 29.0082 16.4331 27.0457C18.6559 25.1558 19.7673 22.3937 19.7673 18.7593C19.8467 15.4157 18.8147 12.7989 16.5918 10.909ZM14.4484 17.2328C14.369 17.887 14.2102 18.5412 13.8133 19.05C13.337 19.7042 13.1782 20.4311 13.1782 21.158C13.1782 22.0302 13.0988 22.9752 12.7813 23.7747C12.6225 24.2835 12.3049 24.7197 11.8286 24.9377C11.5905 25.0104 11.3523 25.0831 11.1141 25.1558C10.6378 25.1558 10.3997 25.0104 10.3203 24.5743C10.2409 24.3562 10.2409 24.0655 10.2409 23.8474C10.2409 23.0478 10.2409 22.2483 9.92335 21.4487C9.84396 21.2307 9.76457 21.0126 9.6058 20.7945C9.36764 20.4311 8.89132 20.3584 8.65316 20.7945C8.415 21.2307 8.25622 21.6668 8.17684 22.1756C8.09745 22.7571 8.09745 23.3386 8.01806 23.9201C8.01806 24.1382 8.01806 24.2835 7.93868 24.5016C7.7799 25.0831 7.30358 25.3738 6.66849 25.1558C6.11278 25.0104 5.71585 24.647 5.47769 24.1382C5.08075 23.4113 5.00137 22.539 4.92198 21.7395C4.92198 21.4487 4.92198 21.0853 4.92198 20.7945C4.92198 20.1403 4.60443 19.5588 4.2075 18.9773C3.65179 18.1051 3.49302 17.1602 3.65179 16.2152C3.81056 15.1249 4.68382 14.3253 6.03339 14.1073C6.43033 14.0346 6.74787 14.0346 7.30358 13.9619C7.7799 14.0346 8.33561 14.18 8.81193 14.2527C8.9707 14.2527 9.05009 14.2527 9.20886 14.2527C10.2409 13.9619 11.1935 13.9619 12.2256 14.18C13.8927 14.5434 14.6072 15.6337 14.4484 17.2328Z" fill="#266DD3"/>
<path d="M131.36 10.144C133.16 10.144 134.36 9.172 134.36 7.84C134.36 6.556 133.244 5.932 132.512 5.872C133.256 5.74 134.24 5.164 134.24 4.012C134.24 2.656 132.944 1.876 131.372 1.876C130.1 1.876 129.08 2.416 128.48 3.112L129.032 3.736C129.632 3.1 130.388 2.764 131.3 2.764C132.356 2.764 133.22 3.244 133.22 4.132C133.22 5.056 132.344 5.452 131.276 5.452H129.644V6.34H131.276C132.5 6.34 133.352 6.76 133.352 7.756C133.352 8.68 132.596 9.256 131.336 9.256C130.352 9.256 129.416 8.812 128.936 8.188L128.348 8.824C128.852 9.544 129.956 10.144 131.36 10.144ZM138.764 10.144C140.288 10.144 141.344 8.968 141.344 7.096C141.344 5.212 140.288 4.06 138.764 4.06C137.948 4.06 137.228 4.48 136.808 5.068V4.204H135.908V12.208H136.808V9.124C137.276 9.772 137.972 10.144 138.764 10.144ZM138.536 9.34C137.828 9.34 137.12 8.908 136.808 8.404V5.788C137.12 5.284 137.828 4.864 138.536 4.864C139.7 4.864 140.396 5.812 140.396 7.096C140.396 8.38 139.7 9.34 138.536 9.34ZM145.307 10.144C147.071 10.144 148.175 8.776 148.175 7.096C148.175 5.416 147.071 4.06 145.307 4.06C143.543 4.06 142.439 5.416 142.439 7.096C142.439 8.776 143.543 10.144 145.307 10.144ZM145.307 9.34C144.071 9.34 143.375 8.284 143.375 7.096C143.375 5.92 144.071 4.864 145.307 4.864C146.543 4.864 147.227 5.92 147.227 7.096C147.227 8.284 146.543 9.34 145.307 9.34ZM151.694 10.144C153.362 10.144 154.346 9.424 154.346 8.452C154.346 7.492 153.338 7.084 152.666 7.036C153.35 6.952 154.226 6.484 154.226 5.62C154.226 4.636 153.122 4.06 151.562 4.072C150.506 4.072 149.726 4.444 149.186 4.996L149.654 5.548C150.146 5.044 150.782 4.804 151.598 4.804C152.558 4.804 153.29 5.176 153.29 5.728C153.29 6.388 152.534 6.7 151.574 6.7H150.278V7.432H151.574C152.594 7.432 153.398 7.672 153.398 8.392C153.398 9.004 152.726 9.4 151.694 9.4C150.83 9.4 150.062 9.136 149.522 8.62L149.078 9.196C149.654 9.772 150.53 10.144 151.694 10.144ZM155.482 12.268C155.65 12.316 155.95 12.352 156.142 12.352C156.91 12.34 157.498 12.016 157.846 11.176L160.75 4.204H159.766L157.846 8.956L155.914 4.204H154.942L157.366 10.06L156.982 10.936C156.778 11.416 156.514 11.548 156.118 11.548C155.974 11.548 155.758 11.512 155.626 11.452L155.482 12.268ZM167.605 10V4.204H166.405L164.653 8.5L162.877 4.204H161.689V10H162.589V5.452L164.485 10H164.821L166.705 5.452V10H167.605ZM169.844 3.376C170.18 3.376 170.456 3.112 170.456 2.776C170.456 2.44 170.18 2.164 169.844 2.164C169.52 2.164 169.244 2.44 169.244 2.776C169.244 3.112 169.52 3.376 169.844 3.376ZM170.3 10V4.204H169.4V10H170.3ZM174.651 10.144C175.707 10.144 176.331 9.712 176.775 9.136L176.199 8.608C175.815 9.124 175.299 9.4 174.699 9.4C173.571 9.4 172.839 8.62 172.707 7.456H175.635V6.676H172.719C172.863 5.548 173.595 4.804 174.699 4.804C175.299 4.804 175.815 5.068 176.199 5.596L176.775 5.068C176.331 4.492 175.707 4.06 174.651 4.06C172.923 4.06 171.759 5.38 171.759 7.096C171.759 8.824 172.923 10.144 174.651 10.144ZM183.953 10V4.204H182.753L181.001 8.5L179.225 4.204H178.037V10H178.937V5.452L180.833 10H181.169L183.053 5.452V10H183.953ZM188.28 10.144C190.044 10.144 191.148 8.776 191.148 7.096C191.148 5.416 190.044 4.06 188.28 4.06C186.516 4.06 185.412 5.416 185.412 7.096C185.412 8.776 186.516 10.144 188.28 10.144ZM188.28 9.34C187.044 9.34 186.348 8.284 186.348 7.096C186.348 5.92 187.044 4.864 188.28 4.864C189.516 4.864 190.2 5.92 190.2 7.096C190.2 8.284 189.516 9.34 188.28 9.34ZM193.013 10.12C193.373 10.12 193.673 9.82 193.673 9.46C193.673 9.1 193.373 8.8 193.013 8.8C192.653 8.8 192.353 9.1 192.353 9.46C192.353 9.82 192.653 10.12 193.013 10.12ZM135.608 22V13.996H128.936V22H129.932V14.884H134.612V22H135.608ZM139.975 22.144C141.739 22.144 142.843 20.776 142.843 19.096C142.843 17.416 141.739 16.06 139.975 16.06C138.211 16.06 137.107 17.416 137.107 19.096C137.107 20.776 138.211 22.144 139.975 22.144ZM139.975 21.34C138.739 21.34 138.043 20.284 138.043 19.096C138.043 17.92 138.739 16.864 139.975 16.864C141.211 16.864 141.895 17.92 141.895 19.096C141.895 20.284 141.211 21.34 139.975 21.34ZM145.174 22L146.59 19.756H148.174V22H149.074V16.204H146.014C144.838 16.204 144.178 16.996 144.178 17.98C144.178 18.952 144.802 19.612 145.666 19.72L144.118 22H145.174ZM146.11 18.964C145.45 18.964 145.102 18.556 145.102 17.98C145.102 17.404 145.474 16.996 146.11 16.996H148.174V18.964H146.11ZM153.429 22.144C154.485 22.144 155.109 21.712 155.553 21.136L154.953 20.584C154.569 21.1 154.077 21.34 153.477 21.34C152.241 21.34 151.473 20.38 151.473 19.096C151.473 17.812 152.241 16.864 153.477 16.864C154.077 16.864 154.569 17.092 154.953 17.62L155.553 17.068C155.109 16.492 154.485 16.06 153.429 16.06C151.701 16.06 150.537 17.38 150.537 19.096C150.537 20.824 151.701 22.144 153.429 22.144ZM157.714 22V19.408H160.738V22H161.638V16.204H160.738V18.616H157.714V16.204H156.814V22H157.714ZM164.299 22L167.359 17.488V22H168.259V16.204H167.371L164.335 20.632V16.204H163.435V22H164.299ZM175.972 22V16.204H174.772L173.02 20.5L171.244 16.204H170.056V22H170.956V17.452L172.852 22H173.188L175.072 17.452V22H175.972ZM180.299 22.144C182.063 22.144 183.167 20.776 183.167 19.096C183.167 17.416 182.063 16.06 180.299 16.06C178.535 16.06 177.431 17.416 177.431 19.096C177.431 20.776 178.535 22.144 180.299 22.144ZM180.299 21.34C179.063 21.34 178.367 20.284 178.367 19.096C178.367 17.92 179.063 16.864 180.299 16.864C181.535 16.864 182.219 17.92 182.219 19.096C182.219 20.284 181.535 21.34 180.299 21.34ZM185.032 22.12C185.392 22.12 185.692 21.82 185.692 21.46C185.692 21.1 185.392 20.8 185.032 20.8C184.672 20.8 184.372 21.1 184.372 21.46C184.372 21.82 184.672 22.12 185.032 22.12ZM131.36 34.144C133.16 34.144 134.36 33.172 134.36 31.84C134.36 30.556 133.244 29.932 132.512 29.872C133.256 29.74 134.24 29.164 134.24 28.012C134.24 26.656 132.944 25.876 131.372 25.876C130.1 25.876 129.08 26.416 128.48 27.112L129.032 27.736C129.632 27.1 130.388 26.764 131.3 26.764C132.356 26.764 133.22 27.244 133.22 28.132C133.22 29.056 132.344 29.452 131.276 29.452H129.644V30.34H131.276C132.5 30.34 133.352 30.76 133.352 31.756C133.352 32.68 132.596 33.256 131.336 33.256C130.352 33.256 129.416 32.812 128.936 32.188L128.348 32.824C128.852 33.544 129.956 34.144 131.36 34.144ZM138.764 34.144C140.288 34.144 141.344 32.968 141.344 31.096C141.344 29.212 140.288 28.06 138.764 28.06C137.948 28.06 137.228 28.48 136.808 29.068V28.204H135.908V36.208H136.808V33.124C137.276 33.772 137.972 34.144 138.764 34.144ZM138.536 33.34C137.828 33.34 137.12 32.908 136.808 32.404V29.788C137.12 29.284 137.828 28.864 138.536 28.864C139.7 28.864 140.396 29.812 140.396 31.096C140.396 32.38 139.7 33.34 138.536 33.34ZM145.307 34.144C147.071 34.144 148.175 32.776 148.175 31.096C148.175 29.416 147.071 28.06 145.307 28.06C143.543 28.06 142.439 29.416 142.439 31.096C142.439 32.776 143.543 34.144 145.307 34.144ZM145.307 33.34C144.071 33.34 143.375 32.284 143.375 31.096C143.375 29.92 144.071 28.864 145.307 28.864C146.543 28.864 147.227 29.92 147.227 31.096C147.227 32.284 146.543 33.34 145.307 33.34ZM152.174 33.34C150.938 33.34 150.242 32.284 150.242 31.084C150.242 29.92 150.938 28.864 152.174 28.864C153.41 28.864 154.094 29.92 154.094 31.084C154.094 32.284 153.41 33.34 152.174 33.34ZM152.174 34.144C153.962 34.144 155.03 32.752 155.03 31.084C155.03 29.44 153.962 28.06 152.318 28.06C151.286 28.06 150.554 28.636 150.134 29.296C150.338 28.312 150.854 27.568 152.57 27.328C153.554 27.196 154.85 26.944 154.85 25.996H153.974C153.974 26.236 153.614 26.392 152.342 26.584C150.326 26.848 149.306 28.012 149.306 30.832C149.306 32.752 150.398 34.144 152.174 34.144ZM157.432 34L160.492 29.488V34H161.392V28.204H160.504L157.468 32.632V28.204H156.568V34H157.432ZM169.105 34V28.204H167.905L166.153 32.5L164.377 28.204H163.189V34H164.089V29.452L165.985 34H166.321L168.205 29.452V34H169.105ZM173.432 34.144C175.196 34.144 176.3 32.776 176.3 31.096C176.3 29.416 175.196 28.06 173.432 28.06C171.668 28.06 170.564 29.416 170.564 31.096C170.564 32.776 171.668 34.144 173.432 34.144ZM173.432 33.34C172.196 33.34 171.5 32.284 171.5 31.096C171.5 29.92 172.196 28.864 173.432 28.864C174.668 28.864 175.352 29.92 175.352 31.096C175.352 32.284 174.668 33.34 173.432 33.34ZM178.165 34.12C178.525 34.12 178.825 33.82 178.825 33.46C178.825 33.1 178.525 32.8 178.165 32.8C177.805 32.8 177.505 33.1 177.505 33.46C177.505 33.82 177.805 34.12 178.165 34.12Z" fill="#4D6F8C"/>
</svg>
