<svg width="27" height="27" viewBox="0 0 27 27" fill="none" xmlns="http://www.w3.org/2000/svg">
<rect width="27" height="27" rx="2" fill="#F9F9F9"/>
<path d="M12.0488 17.0245L11.8468 16.8225C11.5497 16.5253 11.55 16.0438 11.8468 15.7469L17.6921 9.90164C18.026 9.56779 18.5675 9.56746 18.9019 9.90195L20.0514 11.0514C20.3859 11.3859 20.3856 11.9274 20.0518 12.2613L11.0062 21.3068L9.38634 19.687L12.0488 17.0245Z" fill="#031826"/>
<path d="M14.2104 6.78958C14.3218 6.6782 14.5023 6.67804 14.6138 6.78958L17.2909 9.46668L16.6104 10.1471L13.9333 7.47005C13.8218 7.35851 13.822 7.17805 13.9333 7.06666L14.2104 6.78958Z" fill="#031826"/>
<path d="M12.9406 8.05944C13.0523 7.94773 13.2327 7.94757 13.3443 8.05911L16.0214 10.7362L15.3406 11.417L12.6635 8.73991C12.5519 8.62837 12.5521 8.44791 12.6636 8.33637L12.9406 8.05944Z" fill="#031826"/>
<path d="M11.6694 9.3306C11.7808 9.21921 11.9612 9.21906 12.0728 9.3306L14.7499 12.0077L14.0693 12.6883L11.3922 10.0112C11.2806 9.89968 11.2808 9.71922 11.3922 9.60783L11.6694 9.3306Z" fill="#031826"/>
<path d="M10.3991 10.6009C10.5103 10.4897 10.6907 10.4896 10.8023 10.6011L13.4794 13.2782L12.7989 13.9587L10.1218 11.2816C10.0103 11.17 10.0104 10.9896 10.1217 10.8783L10.3991 10.6009Z" fill="#031826"/>
<path d="M9.12839 11.8716C9.23977 11.7602 9.42023 11.7601 9.53177 11.8716L12.2089 14.5487L11.5282 15.2293L8.85115 12.5522C8.73961 12.4407 8.73976 12.2602 8.85115 12.1489L9.12839 11.8716Z" fill="#031826"/>
</svg>
