<svg width="145" height="30" viewBox="0 0 145 30" fill="none" xmlns="http://www.w3.org/2000/svg">
    <path d="M25.105 26.5907C25.105 25.4219 25.4074 24.6427 26.0124 24.0583C26.6173 23.4738 27.5247 23.1816 28.7345 23.1816C29.8436 23.1816 30.751 23.4738 31.3559 24.0583C31.9608 24.6427 32.2633 25.5193 32.2633 26.5907C32.2633 27.6621 31.9608 28.4413 31.3559 29.1231C30.751 29.7076 29.8436 29.9998 28.7345 29.9998C27.5247 29.9998 26.7181 29.7076 26.0124 29.1231C25.4074 28.5387 25.105 27.6621 25.105 26.5907Z" fill="#266DD3"/>
    <path d="M57.2673 29.5127L55.0492 22.4998H43.9589L41.7408 29.5127H34.7842L45.5721 0H53.4361L64.224 29.5127H57.2673ZM53.5369 17.2401C51.5205 10.909 50.3106 7.30513 50.109 6.52592C49.9074 5.7467 49.7057 5.06489 49.6049 4.57788C49.1008 6.33111 47.7901 10.5194 45.6729 17.3375H53.5369V17.2401Z" fill="#266DD3"/>
    <path d="M94.9744 29.513H86.8079L73.6003 7.30538H73.3987C73.7012 11.2014 73.802 14.0261 73.802 15.6819V29.513H68.0552V0.0976562H76.2217L89.4293 22.1104H89.5301C89.3285 18.3118 89.2276 15.5845 89.2276 14.0261V0.0976562H95.0753V29.513H94.9744Z" fill="#266DD3"/>
    <path d="M114.331 29.513H107.879V5.25995H99.6113V0.0976562H122.599V5.25995H114.331V29.513Z" fill="#266DD3"/>
    <path d="M144.78 29.513H127.237V0.0976562H144.78V5.16254H133.689V11.6885H143.973V16.7533H133.689V24.3507H144.78V29.513Z" fill="#266DD3"/>
    <path d="M21.0716 3.89681C18.3495 1.36437 14.5183 0.0981445 9.47719 0.0981445H0V29.4161H8.5698C13.9133 29.4161 18.047 28.1498 20.87 25.52C23.693 22.9876 25.1045 19.2863 25.1045 14.4162C25.2053 9.93572 23.8946 6.42926 21.0716 3.89681ZM18.3495 12.3708C18.2486 13.2474 18.047 14.124 17.5429 14.8058C16.938 15.6824 16.7363 16.6564 16.7363 17.6305C16.7363 18.7993 16.6355 20.0655 16.2322 21.1369C16.0306 21.8187 15.6273 22.4031 15.0224 22.6953C14.7199 22.7928 14.4174 22.8902 14.115 22.9876C13.51 22.9876 13.2076 22.7928 13.1068 22.2083C13.0059 21.9161 13.0059 21.5265 13.0059 21.2343C13.0059 20.1629 13.0059 19.0915 12.6027 18.0201C12.5018 17.7279 12.401 17.4357 12.1994 17.1435C11.8969 16.6564 11.292 16.559 10.9895 17.1435C10.687 17.7279 10.4854 18.3123 10.3846 18.9941C10.2838 19.7733 10.2838 20.5525 10.1829 21.3317C10.1829 21.6239 10.1829 21.8187 10.0821 22.1109C9.88048 22.8902 9.27555 23.2798 8.46898 22.9876C7.76323 22.7928 7.25913 22.3057 6.95666 21.6239C6.45256 20.6499 6.35174 19.4811 6.25092 18.4097C6.25092 18.0201 6.25092 17.5331 6.25092 17.1435C6.25092 16.2668 5.84763 15.4876 5.34352 14.7084C4.63778 13.5396 4.43613 12.2734 4.63778 11.0071C4.83942 9.54611 5.94845 8.4747 7.66241 8.18249C8.16652 8.08509 8.5698 8.08509 9.27555 7.98769C9.88048 8.08509 10.5862 8.27989 11.1912 8.37729C11.3928 8.37729 11.4936 8.37729 11.6953 8.37729C13.0059 7.98769 14.2158 7.98769 15.5265 8.27989C17.6437 8.7669 18.5511 10.2279 18.3495 12.3708Z" fill="#266DD3"/>
</svg>
