<svg width="204" height="25" viewBox="0 0 204 25" fill="none" xmlns="http://www.w3.org/2000/svg">
<path d="M19.7676 20.8424C19.7676 19.9702 20.0057 19.3887 20.4821 18.9525C20.9584 18.5164 21.6729 18.2983 22.6255 18.2983C23.4988 18.2983 24.2132 18.5164 24.6896 18.9525C25.1659 19.3887 25.404 20.0428 25.404 20.8424C25.404 21.642 25.1659 22.2235 24.6896 22.7323C24.2132 23.1684 23.4988 23.3865 22.6255 23.3865C21.6729 23.3865 21.0378 23.1684 20.4821 22.7323C20.0057 22.2962 19.7676 21.642 19.7676 20.8424Z" fill="#266DD3"/>
<path d="M45.0924 23.0243L43.3459 17.7908H34.6134L32.8668 23.0243H27.3892L35.8835 1H42.0757L50.5701 23.0243H45.0924ZM42.1551 13.8657C40.5674 9.141 39.6147 6.45156 39.4559 5.87006C39.2972 5.28856 39.1384 4.77975 39.059 4.41631C38.6621 5.72469 37.6301 8.85025 35.9629 13.9384H42.1551V13.8657Z" fill="#266DD3"/>
<path d="M74.7822 23.0234H68.3519L57.9522 6.45065H57.7934C58.0316 9.35815 58.111 11.4661 58.111 12.7018V23.0234H53.5859V1.07178H60.0163L70.4159 17.4992H70.4953C70.3365 14.6643 70.2572 12.6291 70.2572 11.4661V1.07178H74.8616V23.0234H74.7822Z" fill="#266DD3"/>
<path d="M90.025 23.0234H84.9443V4.92421H78.4346V1.07178H96.5347V4.92421H90.025V23.0234V23.0234Z" fill="#266DD3"/>
<path d="M114 23.0234H100.187V1.07178H114V4.85153H105.267V9.72159H113.365V13.5013H105.267V19.171H114V23.0234Z" fill="#266DD3"/>
<path d="M16.5918 3.90903C14.4484 2.01916 11.4317 1.07422 7.46236 1.07422H0V22.9532H6.74787C10.9554 22.9532 14.2102 22.0082 16.4331 20.0457C18.6559 18.1558 19.7673 15.3937 19.7673 11.7593C19.8467 8.41566 18.8147 5.79891 16.5918 3.90903ZM14.4484 10.2328C14.369 10.887 14.2102 11.5412 13.8133 12.05C13.337 12.7042 13.1782 13.4311 13.1782 14.158C13.1782 15.0302 13.0988 15.9752 12.7813 16.7747C12.6225 17.2835 12.3049 17.7197 11.8286 17.9377C11.5905 18.0104 11.3523 18.0831 11.1141 18.1558C10.6378 18.1558 10.3997 18.0104 10.3203 17.5743C10.2409 17.3562 10.2409 17.0655 10.2409 16.8474C10.2409 16.0478 10.2409 15.2483 9.92335 14.4487C9.84396 14.2307 9.76457 14.0126 9.6058 13.7945C9.36764 13.4311 8.89132 13.3584 8.65316 13.7945C8.415 14.2307 8.25622 14.6668 8.17684 15.1756C8.09745 15.7571 8.09745 16.3386 8.01806 16.9201C8.01806 17.1382 8.01806 17.2835 7.93868 17.5016C7.7799 18.0831 7.30358 18.3738 6.66849 18.1558C6.11278 18.0104 5.71585 17.647 5.47769 17.1382C5.08075 16.4113 5.00137 15.539 4.92198 14.7395C4.92198 14.4487 4.92198 14.0853 4.92198 13.7945C4.92198 13.1403 4.60443 12.5588 4.2075 11.9773C3.65179 11.1051 3.49302 10.1602 3.65179 9.21522C3.81056 8.12491 4.68382 7.32534 6.03339 7.10728C6.43033 7.03459 6.74787 7.03459 7.30358 6.96191C7.7799 7.03459 8.33561 7.17997 8.81193 7.25266C8.9707 7.25266 9.05009 7.25266 9.20886 7.25266C10.2409 6.96191 11.1935 6.96191 12.2256 7.17997C13.8927 7.54341 14.6072 8.63372 14.4484 10.2328Z" fill="#266DD3"/>
<path d="M135.008 10L131.384 5.8L134.72 1.996H133.472L129.932 6.136V1.996H128.936V10H129.932V7.312L130.736 6.4L133.772 10H135.008ZM138.963 10.144C140.487 10.144 141.543 8.968 141.543 7.096C141.543 5.212 140.487 4.06 138.963 4.06C138.147 4.06 137.427 4.48 137.007 5.068V4.204H136.107V12.208H137.007V9.124C137.475 9.772 138.171 10.144 138.963 10.144ZM138.735 9.34C138.027 9.34 137.319 8.908 137.007 8.404V5.788C137.319 5.284 138.027 4.864 138.735 4.864C139.899 4.864 140.595 5.812 140.595 7.096C140.595 8.38 139.899 9.34 138.735 9.34ZM147.498 10V6.016C147.498 4.612 146.478 4.06 145.254 4.06C144.306 4.06 143.562 4.372 142.938 5.02L143.358 5.644C143.874 5.092 144.438 4.84 145.134 4.84C145.974 4.84 146.598 5.284 146.598 6.064V7.108C146.13 6.568 145.47 6.316 144.678 6.316C143.694 6.316 142.65 6.928 142.65 8.224C142.65 9.484 143.694 10.144 144.678 10.144C145.458 10.144 146.118 9.868 146.598 9.34V10H147.498ZM145.002 9.496C144.162 9.496 143.574 8.968 143.574 8.236C143.574 7.492 144.162 6.964 145.002 6.964C145.638 6.964 146.25 7.204 146.598 7.684V8.776C146.25 9.256 145.638 9.496 145.002 9.496ZM155.998 4.204V9.208H153.55V4.204H152.65V9.208H150.202V4.204H149.302V10H156.742V11.476H157.642V9.208H156.898V4.204H155.998ZM163.401 10V6.016C163.401 4.612 162.381 4.06 161.157 4.06C160.209 4.06 159.465 4.372 158.841 5.02L159.261 5.644C159.777 5.092 160.341 4.84 161.037 4.84C161.877 4.84 162.501 5.284 162.501 6.064V7.108C162.033 6.568 161.373 6.316 160.581 6.316C159.597 6.316 158.553 6.928 158.553 8.224C158.553 9.484 159.597 10.144 160.581 10.144C161.361 10.144 162.021 9.868 162.501 9.34V10H163.401ZM160.905 9.496C160.065 9.496 159.477 8.968 159.477 8.236C159.477 7.492 160.065 6.964 160.905 6.964C161.541 6.964 162.153 7.204 162.501 7.684V8.776C162.153 9.256 161.541 9.496 160.905 9.496ZM171.55 10C172.618 10 173.242 9.364 173.242 8.428C173.242 7.768 172.774 7.156 172.186 7.012C172.678 6.856 173.122 6.388 173.122 5.692C173.122 4.816 172.51 4.204 171.49 4.204H168.298V10H171.55ZM171.37 9.208H169.198V7.42H171.37C171.982 7.42 172.306 7.852 172.306 8.32C172.306 8.872 171.946 9.208 171.37 9.208ZM171.334 6.628H169.198V4.996H171.334C171.886 4.996 172.198 5.32 172.198 5.824C172.198 6.28 171.898 6.628 171.334 6.628ZM177.559 10.144C178.507 10.144 179.287 9.832 179.863 9.256L179.431 8.668C178.975 9.136 178.303 9.4 177.643 9.4C176.395 9.4 175.627 8.488 175.555 7.396H180.247V7.168C180.247 5.428 179.215 4.06 177.463 4.06C175.807 4.06 174.607 5.416 174.607 7.096C174.607 8.908 175.843 10.144 177.559 10.144ZM179.359 6.736H175.555C175.603 5.848 176.215 4.804 177.451 4.804C178.771 4.804 179.347 5.872 179.359 6.736ZM184.561 10.144C186.085 10.144 187.141 8.968 187.141 7.096C187.141 5.212 186.085 4.06 184.561 4.06C183.745 4.06 183.025 4.48 182.605 5.068V4.204H181.705V12.208H182.605V9.124C183.073 9.772 183.769 10.144 184.561 10.144ZM184.333 9.34C183.625 9.34 182.917 8.908 182.605 8.404V5.788C182.917 5.284 183.625 4.864 184.333 4.864C185.497 4.864 186.193 5.812 186.193 7.096C186.193 8.38 185.497 9.34 184.333 9.34ZM191.128 10.144C192.184 10.144 192.808 9.712 193.252 9.136L192.652 8.584C192.268 9.1 191.776 9.34 191.176 9.34C189.94 9.34 189.172 8.38 189.172 7.096C189.172 5.812 189.94 4.864 191.176 4.864C191.776 4.864 192.268 5.092 192.652 5.62L193.252 5.068C192.808 4.492 192.184 4.06 191.128 4.06C189.4 4.06 188.236 5.38 188.236 7.096C188.236 8.824 189.4 10.144 191.128 10.144ZM194.957 3.376C195.293 3.376 195.569 3.112 195.569 2.776C195.569 2.44 195.293 2.164 194.957 2.164C194.633 2.164 194.357 2.44 194.357 2.776C194.357 3.112 194.633 3.376 194.957 3.376ZM195.413 10V4.204H194.513V10H195.413ZM198.073 10L199.489 7.756H201.073V10H201.973V4.204H198.913C197.737 4.204 197.077 4.996 197.077 5.98C197.077 6.952 197.701 7.612 198.565 7.72L197.017 10H198.073ZM199.009 6.964C198.349 6.964 198.001 6.556 198.001 5.98C198.001 5.404 198.373 4.996 199.009 4.996H201.073V6.964H199.009ZM130.856 22V16.996H132.548V16.204H128.276V16.996H129.956V22H130.856ZM136.98 22C138.048 22 138.672 21.364 138.672 20.428C138.672 19.768 138.204 19.156 137.616 19.012C138.108 18.856 138.552 18.388 138.552 17.692C138.552 16.816 137.94 16.204 136.92 16.204H133.728V22H136.98ZM136.8 21.208H134.628V19.42H136.8C137.412 19.42 137.736 19.852 137.736 20.32C137.736 20.872 137.376 21.208 136.8 21.208ZM136.764 18.628H134.628V16.996H136.764C137.316 16.996 137.628 17.32 137.628 17.824C137.628 18.28 137.328 18.628 136.764 18.628ZM142.905 22.144C144.669 22.144 145.773 20.776 145.773 19.096C145.773 17.416 144.669 16.06 142.905 16.06C141.141 16.06 140.037 17.416 140.037 19.096C140.037 20.776 141.141 22.144 142.905 22.144ZM142.905 21.34C141.669 21.34 140.973 20.284 140.973 19.096C140.973 17.92 141.669 16.864 142.905 16.864C144.141 16.864 144.825 17.92 144.825 19.096C144.825 20.284 144.141 21.34 142.905 21.34ZM149.796 22.144C150.852 22.144 151.476 21.712 151.92 21.136L151.344 20.608C150.96 21.124 150.444 21.4 149.844 21.4C148.716 21.4 147.984 20.62 147.852 19.456H150.78V18.676H147.864C148.008 17.548 148.74 16.804 149.844 16.804C150.444 16.804 150.96 17.068 151.344 17.596L151.92 17.068C151.476 16.492 150.852 16.06 149.796 16.06C148.068 16.06 146.904 17.38 146.904 19.096C146.904 20.824 148.068 22.144 149.796 22.144ZM155.557 14.752C155.557 14.452 155.293 14.2 154.993 14.2C154.693 14.2 154.429 14.452 154.429 14.752C154.429 15.064 154.693 15.316 154.993 15.316C155.293 15.316 155.557 15.064 155.557 14.752ZM153.073 14.752C153.073 14.452 152.821 14.2 152.521 14.2C152.209 14.2 151.957 14.452 151.957 14.752C151.957 15.064 152.209 15.316 152.521 15.316C152.821 15.316 153.073 15.064 153.073 14.752ZM154.201 22V16.204H153.301V22H154.201ZM159.006 24.268C159.174 24.316 159.474 24.352 159.666 24.352C160.434 24.34 161.022 24.016 161.37 23.176L164.274 16.204H163.29L161.37 20.956L159.438 16.204H158.466L160.89 22.06L160.506 22.936C160.302 23.416 160.038 23.548 159.642 23.548C159.498 23.548 159.282 23.512 159.15 23.452L159.006 24.268ZM167.889 22.144C168.945 22.144 169.569 21.712 170.013 21.136L169.413 20.584C169.029 21.1 168.537 21.34 167.937 21.34C166.701 21.34 165.933 20.38 165.933 19.096C165.933 17.812 166.701 16.864 167.937 16.864C168.537 16.864 169.029 17.092 169.413 17.62L170.013 17.068C169.569 16.492 168.945 16.06 167.889 16.06C166.161 16.06 164.997 17.38 164.997 19.096C164.997 20.824 166.161 22.144 167.889 22.144ZM177.311 22V16.204H176.111L174.359 20.5L172.583 16.204H171.395V22H172.295V17.452L174.191 22H174.527L176.411 17.452V22H177.311ZM179.669 15.376C180.005 15.376 180.281 15.112 180.281 14.776C180.281 14.44 180.005 14.164 179.669 14.164C179.345 14.164 179.069 14.44 179.069 14.776C179.069 15.112 179.345 15.376 179.669 15.376ZM180.125 22V16.204H179.225V22H180.125ZM188.737 16.204V21.208H186.289V16.204H185.389V21.208H182.941V16.204H182.041V22H189.637V16.204H188.737ZM196.659 22L194.079 18.832L196.647 16.204H195.507L192.459 19.288V16.204H191.559V22H192.459V20.344L193.419 19.396L195.507 22H196.659ZM198.707 22L201.767 17.488V22H202.667V16.204H201.779L198.743 20.632V16.204H197.843V22H198.707Z" fill="#4D6F8C"/>
</svg>
