<svg xmlns="http://www.w3.org/2000/svg" width="116" height="25" viewBox="0 0 116 25" fill="none">
  <path d="M19.9707 21.8915C19.9707 20.9293 20.2113 20.2878 20.6925 19.8066C21.1737 19.3255 21.8955 19.085 22.858 19.085C23.7402 19.085 24.462 19.3255 24.9432 19.8066C25.4244 20.2878 25.665 21.0094 25.665 21.8915C25.665 22.7736 25.4244 23.4151 24.9432 23.9764C24.462 24.4575 23.7402 24.698 22.858 24.698C21.8955 24.698 21.2539 24.4575 20.6925 23.9764C20.2113 23.4952 19.9707 22.7736 19.9707 21.8915Z" fill="#266DD3"/>
  <path d="M45.5559 24.2967L43.7915 18.5232H34.9693L33.2048 24.2967H27.6709L36.2525 0H42.5082L51.0898 24.2967H45.5559ZM42.5884 14.1931C40.9844 8.98094 40.022 6.01402 39.8616 5.37253C39.7012 4.73103 39.5408 4.16972 39.4606 3.76879C39.0596 5.21215 38.0169 8.66019 36.3327 14.2733H42.5884V14.1931Z" fill="#266DD3"/>
  <path d="M75.5506 24.2965H69.0543L58.5478 6.01391H58.3874C58.628 9.22139 58.7082 11.5468 58.7082 12.91V24.2965H54.1367V0.0800781H60.6331L71.1395 18.2023H71.2197C71.0593 15.075 70.9791 12.8298 70.9791 11.5468V0.0800781H75.6308V24.2965H75.5506Z" fill="#266DD3"/>
  <path d="M90.9497 24.2965H85.8168V4.32999H79.2402V0.0800781H97.5262V4.32999H90.9497V24.2965Z" fill="#266DD3"/>
  <path d="M115.17 24.2965H101.215V0.0800781H115.17V4.2498H106.348V9.62233H114.528V13.7921H106.348V20.0466H115.17V24.2965Z" fill="#266DD3"/>
  <path d="M16.7622 3.20737C14.5967 1.12251 11.5491 0.0800781 7.53897 0.0800781H0V24.2164H6.81715C11.0679 24.2164 14.3561 23.1739 16.6018 21.0089C18.8474 18.924 19.9703 15.8769 19.9703 11.8676C20.0505 8.17896 19.0078 5.29223 16.7622 3.20737ZM14.5967 10.1836C14.5165 10.9053 14.3561 11.627 13.9551 12.1883C13.4739 12.91 13.3135 13.7119 13.3135 14.5137C13.3135 15.476 13.2333 16.5184 12.9125 17.4005C12.7521 17.9618 12.4313 18.4429 11.9501 18.6835C11.7095 18.7636 11.4689 18.8438 11.2283 18.924C10.747 18.924 10.5064 18.7636 10.4262 18.2825C10.346 18.042 10.346 17.7212 10.346 17.4806C10.346 16.5986 10.346 15.7165 10.0252 14.8345C9.94502 14.5939 9.86482 14.3534 9.70442 14.1128C9.46381 13.7119 8.9826 13.6317 8.742 14.1128C8.50139 14.5939 8.34099 15.075 8.26079 15.6363C8.18058 16.2778 8.18058 16.9193 8.10038 17.5608C8.10038 17.8014 8.10038 17.9618 8.02018 18.2023C7.85978 18.8438 7.37857 19.1646 6.73695 18.924C6.17554 18.7636 5.77453 18.3627 5.53393 17.8014C5.13292 16.9995 5.05271 16.0373 4.97251 15.1552C4.97251 14.8345 4.97251 14.4335 4.97251 14.1128C4.97251 13.3911 4.65171 12.7496 4.2507 12.1081C3.68928 11.1459 3.52888 10.1034 3.68928 9.06102C3.84969 7.85821 4.73191 6.97616 6.09534 6.73559C6.49635 6.65541 6.81715 6.65541 7.37857 6.57522C7.85978 6.65541 8.42119 6.81578 8.9024 6.89597C9.06281 6.89597 9.14301 6.89597 9.30341 6.89597C10.346 6.57522 11.3085 6.57522 12.3511 6.81578C14.0353 7.21672 14.7571 8.41952 14.5967 10.1836Z" fill="#266DD3"/>
</svg>