<svg width="214" height="25" viewBox="0 0 214 25" fill="none" xmlns="http://www.w3.org/2000/svg">
<path d="M19.7676 20.8424C19.7676 19.9702 20.0057 19.3887 20.4821 18.9525C20.9584 18.5164 21.6729 18.2983 22.6255 18.2983C23.4988 18.2983 24.2132 18.5164 24.6896 18.9525C25.1659 19.3887 25.404 20.0428 25.404 20.8424C25.404 21.642 25.1659 22.2235 24.6896 22.7323C24.2132 23.1684 23.4988 23.3865 22.6255 23.3865C21.6729 23.3865 21.0378 23.1684 20.4821 22.7323C20.0057 22.2962 19.7676 21.642 19.7676 20.8424Z" fill="#266DD3"/>
<path d="M45.0924 23.0243L43.3459 17.7908H34.6134L32.8668 23.0243H27.3892L35.8835 1H42.0757L50.5701 23.0243H45.0924ZM42.1551 13.8657C40.5674 9.141 39.6147 6.45156 39.4559 5.87006C39.2972 5.28856 39.1384 4.77975 39.059 4.41631C38.6621 5.72469 37.6301 8.85025 35.9629 13.9384H42.1551V13.8657Z" fill="#266DD3"/>
<path d="M74.7822 23.0234H68.3519L57.9522 6.45065H57.7934C58.0316 9.35815 58.111 11.4661 58.111 12.7018V23.0234H53.5859V1.07178H60.0163L70.4159 17.4992H70.4953C70.3365 14.6643 70.2572 12.6291 70.2572 11.4661V1.07178H74.8616V23.0234H74.7822Z" fill="#266DD3"/>
<path d="M90.025 23.0234H84.9443V4.92421H78.4346V1.07178H96.5347V4.92421H90.025V23.0234V23.0234Z" fill="#266DD3"/>
<path d="M114 23.0234H100.187V1.07178H114V4.85153H105.267V9.72159H113.365V13.5013H105.267V19.171H114V23.0234Z" fill="#266DD3"/>
<path d="M16.5918 3.90903C14.4484 2.01916 11.4317 1.07422 7.46236 1.07422H0V22.9532H6.74787C10.9554 22.9532 14.2102 22.0082 16.4331 20.0457C18.6559 18.1558 19.7673 15.3937 19.7673 11.7593C19.8467 8.41566 18.8147 5.79891 16.5918 3.90903ZM14.4484 10.2328C14.369 10.887 14.2102 11.5412 13.8133 12.05C13.337 12.7042 13.1782 13.4311 13.1782 14.158C13.1782 15.0302 13.0988 15.9752 12.7813 16.7747C12.6225 17.2835 12.3049 17.7197 11.8286 17.9377C11.5905 18.0104 11.3523 18.0831 11.1141 18.1558C10.6378 18.1558 10.3997 18.0104 10.3203 17.5743C10.2409 17.3562 10.2409 17.0655 10.2409 16.8474C10.2409 16.0478 10.2409 15.2483 9.92335 14.4487C9.84396 14.2307 9.76457 14.0126 9.6058 13.7945C9.36764 13.4311 8.89132 13.3584 8.65316 13.7945C8.415 14.2307 8.25622 14.6668 8.17684 15.1756C8.09745 15.7571 8.09745 16.3386 8.01806 16.9201C8.01806 17.1382 8.01806 17.2835 7.93868 17.5016C7.7799 18.0831 7.30358 18.3738 6.66849 18.1558C6.11278 18.0104 5.71585 17.647 5.47769 17.1382C5.08075 16.4113 5.00137 15.539 4.92198 14.7395C4.92198 14.4487 4.92198 14.0853 4.92198 13.7945C4.92198 13.1403 4.60443 12.5588 4.2075 11.9773C3.65179 11.1051 3.49302 10.1602 3.65179 9.21522C3.81056 8.12491 4.68382 7.32534 6.03339 7.10728C6.43033 7.03459 6.74787 7.03459 7.30358 6.96191C7.7799 7.03459 8.33561 7.17997 8.81193 7.25266C8.9707 7.25266 9.05009 7.25266 9.20886 7.25266C10.2409 6.96191 11.1935 6.96191 12.2256 7.17997C13.8927 7.54341 14.6072 8.63372 14.4484 10.2328Z" fill="#266DD3"/>
<path d="M128.384 10.144C129.812 10.144 130.772 9.604 131.204 6.088L131.6 2.884H134.612V10H135.608V1.996H130.712L130.22 6.016C129.884 8.728 129.344 9.256 128.384 9.256V10.144ZM137.119 12.268C137.287 12.316 137.587 12.352 137.779 12.352C138.547 12.34 139.135 12.016 139.483 11.176L142.387 4.204H141.403L139.483 8.956L137.551 4.204H136.579L139.003 10.06L138.619 10.936C138.415 11.416 138.151 11.548 137.755 11.548C137.611 11.548 137.395 11.512 137.263 11.452L137.119 12.268ZM143.206 4.204V6.112C143.206 7.432 143.842 8.02 145.354 8.02C146.014 8.02 146.686 7.852 147.118 7.636V10H148.018V4.204H147.118V6.904C146.77 7.084 146.182 7.216 145.582 7.216C144.622 7.216 144.106 6.916 144.106 5.836V4.204H143.206ZM156.514 4.204V9.208H154.066V4.204H153.166V9.208H150.718V4.204H149.818V10H157.414V4.204H156.514ZM163.74 10V6.016C163.74 4.612 162.72 4.06 161.496 4.06C160.548 4.06 159.804 4.372 159.18 5.02L159.6 5.644C160.116 5.092 160.68 4.84 161.376 4.84C162.216 4.84 162.84 5.284 162.84 6.064V7.108C162.372 6.568 161.712 6.316 160.92 6.316C159.936 6.316 158.892 6.928 158.892 8.224C158.892 9.484 159.936 10.144 160.92 10.144C161.7 10.144 162.36 9.868 162.84 9.34V10H163.74ZM161.244 9.496C160.404 9.496 159.816 8.968 159.816 8.236C159.816 7.492 160.404 6.964 161.244 6.964C161.88 6.964 162.492 7.204 162.84 7.684V8.776C162.492 9.256 161.88 9.496 161.244 9.496ZM166.409 10L167.825 7.756H169.409V10H170.309V4.204H167.249C166.073 4.204 165.413 4.996 165.413 5.98C165.413 6.952 166.037 7.612 166.901 7.72L165.353 10H166.409ZM167.345 6.964C166.685 6.964 166.337 6.556 166.337 5.98C166.337 5.404 166.709 4.996 167.345 4.996H169.409V6.964H167.345ZM178.453 10C179.521 10 180.145 9.364 180.145 8.428C180.145 7.768 179.677 7.156 179.089 7.012C179.581 6.856 180.025 6.388 180.025 5.692C180.025 4.816 179.413 4.204 178.393 4.204H175.201V10H178.453ZM178.273 9.208H176.101V7.42H178.273C178.885 7.42 179.209 7.852 179.209 8.32C179.209 8.872 178.849 9.208 178.273 9.208ZM178.237 6.628H176.101V4.996H178.237C178.789 4.996 179.101 5.32 179.101 5.824C179.101 6.28 178.801 6.628 178.237 6.628ZM184.461 10.144C185.409 10.144 186.189 9.832 186.765 9.256L186.333 8.668C185.877 9.136 185.205 9.4 184.545 9.4C183.297 9.4 182.529 8.488 182.457 7.396H187.149V7.168C187.149 5.428 186.117 4.06 184.365 4.06C182.709 4.06 181.509 5.416 181.509 7.096C181.509 8.908 182.745 10.144 184.461 10.144ZM186.261 6.736H182.457C182.505 5.848 183.117 4.804 184.353 4.804C185.673 4.804 186.249 5.872 186.261 6.736ZM191.463 10.144C192.987 10.144 194.043 8.968 194.043 7.096C194.043 5.212 192.987 4.06 191.463 4.06C190.647 4.06 189.927 4.48 189.507 5.068V4.204H188.607V12.208H189.507V9.124C189.975 9.772 190.671 10.144 191.463 10.144ZM191.235 9.34C190.527 9.34 189.819 8.908 189.507 8.404V5.788C189.819 5.284 190.527 4.864 191.235 4.864C192.399 4.864 193.095 5.812 193.095 7.096C193.095 8.38 192.399 9.34 191.235 9.34ZM198.03 10.144C199.086 10.144 199.71 9.712 200.154 9.136L199.554 8.584C199.17 9.1 198.678 9.34 198.078 9.34C196.842 9.34 196.074 8.38 196.074 7.096C196.074 5.812 196.842 4.864 198.078 4.864C198.678 4.864 199.17 5.092 199.554 5.62L200.154 5.068C199.71 4.492 199.086 4.06 198.03 4.06C196.302 4.06 195.138 5.38 195.138 7.096C195.138 8.824 196.302 10.144 198.03 10.144ZM202.28 10L205.34 5.488V10H206.24V4.204H205.352L202.316 8.632V4.204H201.416V10H202.28ZM208.901 10L210.317 7.756H211.901V10H212.801V4.204H209.741C208.565 4.204 207.905 4.996 207.905 5.98C207.905 6.952 208.529 7.612 209.393 7.72L207.845 10H208.901ZM209.837 6.964C209.177 6.964 208.829 6.556 208.829 5.98C208.829 5.404 209.201 4.996 209.837 4.996H211.901V6.964H209.837ZM130.856 22V16.996H132.548V16.204H128.276V16.996H129.956V22H130.856ZM136.98 22C138.048 22 138.672 21.364 138.672 20.428C138.672 19.768 138.204 19.156 137.616 19.012C138.108 18.856 138.552 18.388 138.552 17.692C138.552 16.816 137.94 16.204 136.92 16.204H133.728V22H136.98ZM136.8 21.208H134.628V19.42H136.8C137.412 19.42 137.736 19.852 137.736 20.32C137.736 20.872 137.376 21.208 136.8 21.208ZM136.764 18.628H134.628V16.996H136.764C137.316 16.996 137.628 17.32 137.628 17.824C137.628 18.28 137.328 18.628 136.764 18.628ZM142.905 22.144C144.669 22.144 145.773 20.776 145.773 19.096C145.773 17.416 144.669 16.06 142.905 16.06C141.141 16.06 140.037 17.416 140.037 19.096C140.037 20.776 141.141 22.144 142.905 22.144ZM142.905 21.34C141.669 21.34 140.973 20.284 140.973 19.096C140.973 17.92 141.669 16.864 142.905 16.864C144.141 16.864 144.825 17.92 144.825 19.096C144.825 20.284 144.141 21.34 142.905 21.34ZM149.856 22.144C150.804 22.144 151.584 21.832 152.16 21.256L151.728 20.668C151.272 21.136 150.6 21.4 149.94 21.4C148.692 21.4 147.924 20.488 147.852 19.396H152.544V19.168C152.544 17.428 151.512 16.06 149.76 16.06C148.104 16.06 146.904 17.416 146.904 19.096C146.904 20.908 148.14 22.144 149.856 22.144ZM151.656 18.736H147.852C147.9 17.848 148.512 16.804 149.748 16.804C151.068 16.804 151.644 17.872 151.656 18.736ZM154.866 22L157.926 17.488V22H158.826V16.204H157.938L154.902 20.632V16.204H154.002V22H154.866ZM158.514 14.488L158.07 14.104C157.698 14.644 157.11 14.968 156.414 14.968C155.706 14.968 155.13 14.632 154.746 14.104L154.302 14.488C154.794 15.136 155.562 15.544 156.414 15.544C157.278 15.544 158.034 15.136 158.514 14.488ZM163.392 24.268C163.56 24.316 163.86 24.352 164.052 24.352C164.82 24.34 165.408 24.016 165.756 23.176L168.66 16.204H167.676L165.756 20.956L163.824 16.204H162.852L165.276 22.06L164.892 22.936C164.688 23.416 164.424 23.548 164.028 23.548C163.884 23.548 163.668 23.512 163.536 23.452L163.392 24.268ZM168.915 22.144C170.031 22.144 170.655 21.328 170.919 19.168L171.183 16.996H173.523V22H174.423V16.204H170.391L170.019 19.06C169.791 20.776 169.455 21.4 168.915 21.4V22.144ZM176.22 16.204V22H179.292C180.48 22 181.116 21.184 181.116 20.224C181.116 19.276 180.492 18.448 179.292 18.448H177.12V16.204H176.22ZM179.196 19.24C179.856 19.24 180.192 19.66 180.192 20.224C180.192 20.8 179.844 21.208 179.196 21.208H177.12V19.24H179.196ZM182.964 22V16.204H182.064V22H182.964ZM187.295 21.34C186.059 21.34 185.363 20.284 185.363 19.084C185.363 17.92 186.059 16.864 187.295 16.864C188.531 16.864 189.215 17.92 189.215 19.084C189.215 20.284 188.531 21.34 187.295 21.34ZM187.295 22.144C189.083 22.144 190.151 20.752 190.151 19.084C190.151 17.44 189.083 16.06 187.439 16.06C186.407 16.06 185.675 16.636 185.255 17.296C185.459 16.312 185.975 15.568 187.691 15.328C188.675 15.196 189.971 14.944 189.971 13.996H189.095C189.095 14.236 188.735 14.392 187.463 14.584C185.447 14.848 184.427 16.012 184.427 18.832C184.427 20.752 185.519 22.144 187.295 22.144ZM196.789 22L194.209 18.832L196.777 16.204H195.637L192.589 19.288V16.204H191.689V22H192.589V20.344L193.549 19.396L195.637 22H196.789ZM198.717 22L201.777 17.488V22H202.677V16.204H201.789L198.753 20.632V16.204H197.853V22H198.717Z" fill="#4D6F8C"/>
</svg>
