<svg width="72" height="15" viewBox="0 0 72 15" fill="none" xmlns="http://www.w3.org/2000/svg">
<path d="M6.709 1.46352C6.85867 1.00287 7.51038 1.00287 7.66005 1.46352L8.68529 4.61889C8.75223 4.8249 8.94421 4.96438 9.16082 4.96438H12.4786C12.9629 4.96438 13.1643 5.58419 12.7725 5.86889L10.0883 7.81902C9.9131 7.94634 9.83977 8.17202 9.90671 8.37803L10.932 11.5334C11.0816 11.9941 10.5544 12.3771 10.1625 12.0924L7.47842 10.1423C7.30317 10.015 7.06587 10.015 6.89063 10.1423L4.20651 12.0924C3.81466 12.3771 3.28742 11.9941 3.43709 11.5334L4.46234 8.37803C4.52927 8.17202 4.45594 7.94634 4.2807 7.81902L1.59658 5.86889C1.20473 5.58419 1.40612 4.96438 1.89048 4.96438H5.20823C5.42484 4.96438 5.61682 4.8249 5.68375 4.61889L6.709 1.46352Z" fill="#FBBC05"/>
<path d="M21.0781 1.46352C21.2278 1.00287 21.8795 1.00287 22.0292 1.46352L23.0544 4.61889C23.1214 4.8249 23.3133 4.96438 23.53 4.96438H26.8477C27.3321 4.96438 27.5335 5.58419 27.1416 5.86889L24.4575 7.81902C24.2822 7.94634 24.2089 8.17202 24.2759 8.37803L25.3011 11.5334C25.4508 11.9941 24.9235 12.3771 24.5317 12.0924L21.8476 10.1423C21.6723 10.015 21.435 10.015 21.2598 10.1423L18.5757 12.0924C18.1838 12.3771 17.6566 11.9941 17.8062 11.5334L18.8315 8.37803C18.8984 8.17202 18.8251 7.94634 18.6498 7.81902L15.9657 5.86889C15.5739 5.58419 15.7753 4.96438 16.2596 4.96438H19.5774C19.794 4.96438 19.986 4.8249 20.0529 4.61889L21.0781 1.46352Z" fill="#FBBC05"/>
<path d="M35.4473 1.46352C35.597 1.00287 36.2487 1.00287 36.3983 1.46352L37.4236 4.61889C37.4905 4.8249 37.6825 4.96438 37.8991 4.96438H41.2169C41.7012 4.96438 41.9026 5.58419 41.5107 5.86889L38.8266 7.81902C38.6514 7.94634 38.5781 8.17202 38.645 8.37803L39.6702 11.5334C39.8199 11.9941 39.2927 12.3771 38.9008 12.0924L36.2167 10.1423C36.0415 10.015 35.8042 10.015 35.6289 10.1423L32.9448 12.0924C32.5529 12.3771 32.0257 11.9941 32.1754 11.5334L33.2006 8.37803C33.2676 8.17202 33.1942 7.94634 33.019 7.81902L30.3349 5.86889C29.943 5.58419 30.1444 4.96438 30.6288 4.96438H33.9465C34.1631 4.96438 34.3551 4.8249 34.422 4.61889L35.4473 1.46352Z" fill="#FBBC05"/>
<path d="M49.8159 1.46352C49.9656 1.00287 50.6173 1.00287 50.767 1.46352L51.7922 4.61889C51.8592 4.8249 52.0511 4.96438 52.2678 4.96438H55.5855C56.0699 4.96438 56.2713 5.58419 55.8794 5.86889L53.1953 7.81902C53.02 7.94634 52.9467 8.17202 53.0136 8.37803L54.0389 11.5334C54.1886 11.9941 53.6613 12.3771 53.2695 12.0924L50.5853 10.1423C50.4101 10.015 50.1728 10.015 49.9976 10.1423L47.3134 12.0924C46.9216 12.3771 46.3944 11.9941 46.544 11.5334L47.5693 8.37803C47.6362 8.17202 47.5629 7.94634 47.3876 7.81902L44.7035 5.86889C44.3117 5.58419 44.513 4.96438 44.9974 4.96438H48.3152C48.5318 4.96438 48.7238 4.8249 48.7907 4.61889L49.8159 1.46352Z" fill="#FBBC05"/>
<path d="M64.1851 1.46352C64.3347 1.00287 64.9865 1.00287 65.1361 1.46352L66.1614 4.61889C66.2283 4.8249 66.4203 4.96438 66.6369 4.96438H69.9546C70.439 4.96438 70.6404 5.58419 70.2485 5.86889L67.5644 7.81902C67.3892 7.94634 67.3158 8.17202 67.3828 8.37803L68.408 11.5334C68.5577 11.9941 68.0305 12.3771 67.6386 12.0924L64.9545 10.1423C64.7792 10.015 64.5419 10.015 64.3667 10.1423L61.6826 12.0924C61.2907 12.3771 60.7635 11.9941 60.9132 11.5334L61.9384 8.37803C62.0053 8.17202 61.932 7.94634 61.7568 7.81902L59.0727 5.86889C58.6808 5.58419 58.8822 4.96438 59.3666 4.96438H62.6843C62.9009 4.96438 63.0929 4.8249 63.1598 4.61889L64.1851 1.46352Z" fill="#FBBC05"/>
</svg>
