<svg width="5" height="9" viewBox="0 0 5 9" fill="none" xmlns="http://www.w3.org/2000/svg">
<path d="M2.37226 4.43184L0.247142 1.74124C0.139163 1.60467 0.0852966 1.43764 0.0852966 1.24016C0.0852966 1.04271 0.139179 0.875752 0.247142 0.739202L0.575046 0.323927C0.682856 0.187416 0.814805 0.119141 0.970723 0.119141C1.12664 0.119141 1.25853 0.187416 1.36651 0.323927L4.21756 3.92799C4.32545 4.06456 4.37939 4.23157 4.37939 4.42907C4.37939 4.62656 4.32547 4.79344 4.21756 4.93007L1.36652 8.53413C1.25854 8.6707 1.12667 8.73897 0.970739 8.73897C0.814805 8.73897 0.682872 8.6707 0.575061 8.53413L0.247158 8.11893C0.139179 7.98244 0.0853114 7.81636 0.0853114 7.62064C0.0853114 7.42509 0.139194 7.25714 0.247158 7.11691L2.37226 4.43184Z" fill="#173753"/>
</svg>
