<svg width="27" height="27" viewBox="0 0 27 27" fill="none" xmlns="http://www.w3.org/2000/svg">
<rect width="27" height="27" rx="2" fill="#F9F9F9"/>
<path d="M13.5143 9.85229C13.5601 9.81423 13.5832 9.75571 13.5728 9.70249C13.5615 9.64928 13.5207 9.61021 13.4668 9.6027C13.4668 9.6027 12.2274 9.73381 7.94149 9.40706C7.68225 9.37574 7.56595 9.50736 7.54455 9.76099C7.53263 9.94641 7.4647 11.0022 7.45161 11.2065C7.43842 11.4116 7.59438 11.5558 7.73464 11.5468L10.3658 12.4196C10.4137 12.437 10.4715 12.4254 10.5161 12.3875L13.5143 9.85229Z" fill="black"/>
<path d="M20.9826 14.431C20.99 14.3915 20.9792 14.3505 20.9535 14.3215C20.9263 14.282 20.8895 14.2754 20.8489 14.2778L19.5521 14.3433C19.4947 14.346 19.4436 14.3844 19.4224 14.4393C19.4207 14.4471 19.1514 15.1585 18.5236 15.3442C18.1053 15.441 17.6402 15.1147 17.3691 14.8058C17.2066 14.6206 17.087 14.4194 17.0329 14.2391C17.0171 14.1859 16.9691 14.1499 16.9117 14.1489C16.8543 14.1485 16.801 14.1832 16.7778 14.2364L15.7379 16.5802C15.7245 16.6197 15.713 16.7009 15.7889 16.7877C16.036 17.0689 17.3074 17.4162 17.9832 17.4388C20.3834 17.5212 20.9765 14.4627 20.9826 14.431Z" fill="black"/>
<path d="M14.5721 16.5458L15.7804 13.8112C15.8005 13.7928 15.8166 13.7706 15.825 13.7448C15.8313 13.7245 16.4957 11.7076 17.6317 11.8761C18.3839 11.9193 19.0684 12.8641 19.0754 12.8745C19.1055 12.916 19.1533 12.9407 19.2046 12.9391L20.7236 12.9001C20.7697 12.8985 20.8135 12.8765 20.8419 12.8394C20.8704 12.8023 20.8808 12.7552 20.8703 12.7097C20.8526 12.6401 20.449 10.984 19.456 9.8614C18.6977 9.00441 17.8104 8.69296 16.819 8.93524C16.0945 9.11228 15.5542 9.52853 14.982 9.96818C14.8486 10.071 14.7117 10.1755 14.5611 10.2877C13.0369 11.5719 11.2068 13.057 10.8913 13.3113C9.42492 14.0466 9.47925 14.0021 7.97086 14.8452C7.7976 14.9421 7.63345 15.0787 7.63345 15.3171C7.63364 15.4832 7.63319 16.2774 7.63345 16.4845C7.63322 16.6921 7.72141 16.7855 7.97225 16.7735C12.3882 16.4362 14.4419 16.6366 14.4419 16.6366C14.4987 16.6332 14.5494 16.5973 14.5721 16.5458ZM13.0507 14.2823C12.7154 13.9033 12.7508 13.324 13.1297 12.9896C13.5086 12.6552 14.0877 12.69 14.4226 13.0693C14.7578 13.4482 14.7222 14.0269 14.3435 14.362C13.9646 14.6963 13.3855 14.6607 13.0507 14.2823Z" fill="black"/>
</svg>
