<svg width="27" height="27" viewBox="0 0 27 27" fill="none" xmlns="http://www.w3.org/2000/svg">
<rect width="27" height="27" rx="2" fill="#F9F9F9"/>
<path d="M5.86481 16.6073L5 17.4722L9.52781 22L10.3926 21.1351L9.70588 20.4484L10.469 19.6853L11.5374 20.7537L12.4022 19.8888L11.8172 19.3038L18.4818 12.6392L17.6424 11.7998L18.7616 10.6806L18.1512 10.0701L21 7.22101L19.779 6L16.9301 8.84896L16.3195 8.23841L15.2003 9.35769L14.3609 8.51829L7.69631 15.1828L7.11123 14.5977L6.24635 15.4626L7.3147 16.531L6.55155 17.2941L5.86481 16.6073ZM13.0042 11.0281L14.1743 12.1982L13.5639 12.8086L12.3937 11.6386L13.0042 11.0281ZM11.6815 12.3508L12.8516 13.5209L12.2411 14.1314L11.071 12.9613L11.6815 12.3508ZM10.3079 13.7244L11.478 14.8945L10.8675 15.505L9.69746 14.3349L10.3079 13.7244Z" fill="#031826"/>
</svg>
