<svg width="27" height="27" viewBox="0 0 27 27" fill="none" xmlns="http://www.w3.org/2000/svg">
<rect width="27" height="27" rx="2" fill="#F9F9F9"/>
<path fill-rule="evenodd" clip-rule="evenodd" d="M12.5321 7.72695C10.6822 7.72695 5.33402 4.43978 7.51359 11.8456C7.51359 13.6245 7.91654 19 9.58327 19C11.25 19 10.7372 14.456 12.5321 14.456C14.3271 14.456 13.8142 19 15.4809 19C17.166 19 17.514 13.5858 17.514 11.8069C19.602 4.49779 14.4003 7.72695 12.5321 7.72695Z" fill="#031826"/>
<path d="M15.2449 7.94994C15.2212 7.83357 15.1188 7.75 15 7.75C14.8812 7.75 14.7788 7.83357 14.7551 7.94994L14.4487 9.44872L12.9499 9.75506C12.8336 9.77885 12.75 9.88123 12.75 10C12.75 10.1188 12.8336 10.2212 12.9499 10.2449L14.4487 10.5513L14.7551 12.0501C14.7788 12.1664 14.8812 12.25 15 12.25C15.1188 12.25 15.2212 12.1664 15.2449 12.0501L15.5513 10.5513L17.0501 10.2449C17.1664 10.2212 17.25 10.1188 17.25 10C17.25 9.88123 17.1664 9.77885 17.0501 9.75506L15.5513 9.44872L15.2449 7.94994Z" fill="#031826" stroke="#F9F9F9" stroke-width="0.5" stroke-linejoin="round"/>
</svg>
