<svg width="14" height="9" viewBox="0 0 14 9" fill="none" xmlns="http://www.w3.org/2000/svg">
    <path d="M6.9958 4.76066L11.0536 0.801522C11.2596 0.600355 11.5115 0.5 11.8093 0.5C12.1071 0.5 12.3589 0.600383 12.5649 0.801522L13.1912 1.41241C13.397 1.61327 13.5 1.85909 13.5 2.14957C13.5 2.44005 13.397 2.68576 13.1912 2.88693L7.75569 8.19851C7.54972 8.3995 7.29784 8.5 6.99999 8.5C6.70213 8.5 6.45046 8.39953 6.2444 8.19851L0.808937 2.88695C0.602969 2.68579 0.5 2.44011 0.5 2.1496C0.5 1.85909 0.602969 1.61329 0.808937 1.41244L1.43512 0.80155C1.64097 0.600383 1.89144 0.500028 2.18661 0.500028C2.48154 0.500028 2.73482 0.600412 2.94632 0.80155L6.9958 4.76066Z" fill="#173753"/>
</svg>
