<svg width="8" height="13" viewBox="0 0 8 13" fill="none" xmlns="http://www.w3.org/2000/svg">
    <path d="M4.26066 6.5042L0.301522 2.44637C0.100355 2.24041 1.7384e-07 1.9885 1.47803e-07 1.69067C1.21769e-07 1.39288 0.100383 1.14108 0.301522 0.935146L0.912413 0.30885C1.11327 0.10297 1.35909 5.80567e-07 1.64957 5.55172e-07C1.94005 5.29778e-07 2.18576 0.10297 2.38693 0.30885L7.69851 5.74431C7.8995 5.95028 8 6.20216 8 6.50001C8 6.79787 7.89953 7.04954 7.69851 7.2556L2.38695 12.6911C2.18579 12.897 1.94011 13 1.6496 13C1.35909 13 1.1133 12.897 0.912443 12.6911L0.301551 12.0649C0.100384 11.859 2.86714e-05 11.6086 2.86456e-05 11.3134C2.86198e-05 11.0185 0.100413 10.7652 0.301551 10.5537L4.26066 6.5042Z" fill="#173753"/>
</svg>
