<svg width="10" height="5" viewBox="0 0 10 5" fill="none" xmlns="http://www.w3.org/2000/svg">
    <path d="M5.2359 2.44948L7.91811 0.317717C8.05426 0.2094 8.22077 0.155365 8.41763 0.155365C8.61447 0.155365 8.7809 0.209415 8.91703 0.317717L9.33101 0.646646C9.46709 0.754793 9.53516 0.887155 9.53516 1.04356C9.53516 1.19997 9.46709 1.33227 9.33101 1.44058L5.73818 4.30055C5.60204 4.40878 5.43555 4.46289 5.23867 4.46289C5.04179 4.46289 4.87543 4.40879 4.73923 4.30055L1.14641 1.4406C1.01026 1.33228 0.9422 1.2 0.9422 1.04358C0.9422 0.887155 1.01026 0.754808 1.14641 0.646661L1.56031 0.317732C1.69637 0.209415 1.86194 0.15538 2.05704 0.15538C2.25199 0.15538 2.41941 0.209431 2.55921 0.317732L5.2359 2.44948Z" fill="#173753"/>
</svg>
