<svg xmlns="http://www.w3.org/2000/svg" width="41" height="41" viewBox="0 0 41 41" fill="none">
  <circle cx="20.5" cy="20.5" r="20.5" fill="#F6F9FD"/>
  <path d="M18.6602 14.2339L19.2687 15.3242C19.8178 16.3081 19.5974 17.5987 18.7325 18.4636C18.7325 18.4636 17.6836 19.5126 19.5855 21.4146C21.4867 23.3158 22.5364 22.2675 22.5364 22.2675C23.4013 21.4026 24.6919 21.1822 25.6758 21.7313L26.7661 22.3398C28.2518 23.1689 28.4272 25.2524 27.1214 26.5583C26.3367 27.343 25.3754 27.9536 24.3127 27.9938C22.5239 28.0617 19.4859 27.609 16.4385 24.5616C13.3911 21.5141 12.9383 18.4762 13.0061 16.6873C13.0464 15.6246 13.657 14.6633 14.4417 13.8787C15.7476 12.5728 17.8311 12.7482 18.6602 14.2339Z" fill="#266DD3"/>
</svg>