<svg width="12" height="12" viewBox="0 0 12 12" fill="none" xmlns="http://www.w3.org/2000/svg">
    <circle cx="6" cy="6" r="5.5" stroke="#266DD3"/>
    <path d="M5.01941 8.48C5.16874 8.48 5.27541 8.45067 5.33941 8.392C5.40341 8.33333 5.44341 8.25067 5.45941 8.144C5.48074 8.032 5.49141 7.90667 5.49141 7.768V6.44C5.49141 6.344 5.49407 6.23467 5.49941 6.112C5.50474 5.984 5.51274 5.86133 5.52341 5.744C5.43807 5.74933 5.33674 5.75467 5.21941 5.76C5.10741 5.76 5.02207 5.76267 4.96341 5.768V5.16C5.20874 5.16 5.41674 5.14667 5.58741 5.12C5.75807 5.09333 5.89141 5.06133 5.98741 5.024C6.08874 4.98667 6.15807 4.952 6.19541 4.92H6.62741V7.712C6.62741 7.78667 6.62474 7.89333 6.61941 8.032C6.61407 8.16533 6.60607 8.29333 6.59541 8.416C6.68074 8.40533 6.77407 8.4 6.87541 8.4C6.98207 8.39467 7.06207 8.392 7.11541 8.392V9H5.01941V8.48ZM6.01941 4.288C5.83807 4.288 5.68874 4.224 5.57141 4.096C5.45407 3.968 5.39541 3.81333 5.39541 3.632C5.39541 3.45067 5.45674 3.296 5.57941 3.168C5.70207 3.04 5.84607 2.976 6.01141 2.976C6.18207 2.976 6.32341 3.04 6.43541 3.168C6.55274 3.296 6.61141 3.45067 6.61141 3.632C6.61141 3.81333 6.55807 3.968 6.45141 4.096C6.34474 4.224 6.20074 4.288 6.01941 4.288Z" fill="#266DD3"/>
</svg>
