<svg width="13" height="19" viewBox="0 0 13 19" fill="none" xmlns="http://www.w3.org/2000/svg">
    <path d="M12.0897 14.1338C11.0803 13.8656 10.1464 13.4438 9.31811 12.9026C9.06211 12.739 8.72461 12.7188 8.44243 12.8825L6.18375 14.1963C4.19552 12.418 2.81738 10.0423 2.2596 7.43771L4.51936 6.11991C4.80158 5.95619 4.95151 5.6532 4.93668 5.3498C4.87801 4.36207 4.97546 3.34201 5.24369 2.33263C5.36323 1.88262 5.09833 1.42598 4.64836 1.30641L1.81074 0.552354C1.36484 0.433863 0.904131 0.697684 0.78456 1.14765C-1.23845 8.76057 3.29183 16.5699 10.9047 18.5929C11.3547 18.7125 11.8114 18.4476 11.9309 17.9976L12.685 15.16C12.8045 14.71 12.5396 14.2534 12.0897 14.1338Z" fill="#4D6F8C"/>
</svg>
