<svg width="32" height="32" viewBox="0 0 32 32" fill="none" xmlns="http://www.w3.org/2000/svg">
    <path d="M1.90798e-07 16C8.55856e-08 24.8229 7.17706 32 16 32C24.8229 32 32 24.8229 32 16C32 7.17706 24.8217 2.95996e-07 16 1.90798e-07C7.17831 8.56005e-08 2.96011e-07 7.17706 1.90798e-07 16ZM29.5213 16C29.5213 23.4547 23.4559 29.5213 16 29.5213C8.54406 29.5213 2.47869 23.4547 2.47869 16C2.47869 8.54406 8.54406 2.47869 16 2.47869C23.4559 2.47869 29.5213 8.54531 29.5213 16Z" fill="#266DD3"/>
    <path d="M17.7102 8.92342L11.5135 15.1202C11.0326 15.6035 11.0326 16.3843 11.5135 16.8677L17.7102 23.0644C18.1737 23.4622 18.8591 23.4622 19.3226 23.0644C19.8419 22.6195 19.9026 21.8362 19.4577 21.3169L14.1409 16.0001L19.4577 10.6709C19.9386 10.1875 19.9386 9.40679 19.4577 8.92342C18.9744 8.44254 18.1936 8.44254 17.7102 8.92342Z" fill="#266DD3"/>
    <defs>
        <rect width="32" height="32" fill="white" transform="translate(0 32) rotate(-90)"/>
    </defs>
</svg>
