<svg width="32" height="32" viewBox="0 0 32 32" fill="none" xmlns="http://www.w3.org/2000/svg">
    <path d="M32 16C32 7.17706 24.8229 -3.13719e-07 16 -6.99382e-07C7.17706 -1.08505e-06 -3.13719e-07 7.17706 -6.99382e-07 16C-1.08505e-06 24.8229 7.17831 32 16 32C24.8217 32 32 24.8229 32 16ZM2.47869 16C2.47869 8.54531 8.54406 2.47869 16 2.47869C23.4559 2.47869 29.5213 8.54531 29.5213 16C29.5213 23.4559 23.4559 29.5213 16 29.5213C8.54406 29.5213 2.47869 23.4547 2.47869 16Z" fill="#266DD3"/>
    <path d="M14.2903 23.0766L20.487 16.8798C20.9679 16.3965 20.9679 15.6157 20.487 15.1323L14.2903 8.93557C13.8268 8.53775 13.1414 8.53775 12.6779 8.93557C12.1586 9.3805 12.0979 10.1638 12.5428 10.6831L17.8596 15.9999L12.5428 21.3291C12.0619 21.8125 12.0619 22.5932 12.5428 23.0766C13.0261 23.5575 13.8069 23.5575 14.2903 23.0766Z" fill="#266DD3"/>
    <defs>
        <rect width="32" height="32" fill="white" transform="translate(32) rotate(90)"/>
    </defs>
</svg>
