<svg width="39" height="39" viewBox="0 0 39 39" fill="none" xmlns="http://www.w3.org/2000/svg">
    <circle cx="19.3837" cy="19.3837" r="19.3837" fill="#266DD3"/>
    <path d="M27.7846 26.5407V18.0501H26.0157C26.1904 18.6004 26.2777 19.1725 26.2777 19.7665C26.2777 20.8672 25.9982 21.8826 25.4391 22.8129C24.8801 23.7432 24.1201 24.4792 23.1592 25.0208C22.1984 25.5624 21.1501 25.8331 20.0146 25.8331C18.2937 25.8331 16.8218 25.2413 15.5989 24.0577C14.376 22.8741 13.7645 21.4437 13.7645 19.7665C13.7645 19.1725 13.8519 18.6004 14.0266 18.0501H12.1791V26.5407C12.1791 26.7678 12.2555 26.9578 12.4084 27.1107C12.5612 27.2635 12.7512 27.34 12.9783 27.34H26.9853C27.2037 27.34 27.3915 27.2635 27.5487 27.1107C27.7059 26.9578 27.7846 26.7678 27.7846 26.5407ZM24.0633 19.5569C24.0633 18.4737 23.6681 17.55 22.8775 16.7856C22.087 16.0213 21.1327 15.6391 20.0146 15.6391C18.9052 15.6391 17.9552 16.0213 17.1647 16.7856C16.3742 17.55 15.9789 18.4737 15.9789 19.5569C15.9789 20.64 16.3742 21.5638 17.1647 22.3281C17.9552 23.0925 18.9052 23.4746 20.0146 23.4746C21.1327 23.4746 22.087 23.0925 22.8775 22.3281C23.6681 21.5638 24.0633 20.64 24.0633 19.5569ZM27.7846 14.8399V12.6779C27.7846 12.4333 27.6972 12.2215 27.5225 12.0424C27.3478 11.8633 27.1338 11.7738 26.8805 11.7738H24.6006C24.3472 11.7738 24.1332 11.8633 23.9585 12.0424C23.7838 12.2215 23.6965 12.4333 23.6965 12.6779V14.8399C23.6965 15.0932 23.7838 15.3072 23.9585 15.4819C24.1332 15.6566 24.3472 15.744 24.6006 15.744H26.8805C27.1338 15.744 27.3478 15.6566 27.5225 15.4819C27.6972 15.3072 27.7846 15.0932 27.7846 14.8399ZM30.0644 12.1145V27.0779C30.0644 27.7855 29.8111 28.3926 29.3045 28.8992C28.7978 29.4059 28.1907 29.6592 27.4832 29.6592H12.5197C11.8122 29.6592 11.2051 29.4059 10.6984 28.8992C10.1918 28.3926 9.93848 27.7855 9.93848 27.0779V12.1145C9.93848 11.4069 10.1918 10.7998 10.6984 10.2932C11.2051 9.78652 11.8122 9.5332 12.5197 9.5332H27.4832C28.1907 9.5332 28.7978 9.78652 29.3045 10.2932C29.8111 10.7998 30.0644 11.4069 30.0644 12.1145Z" fill="white"/>
</svg>
