<svg width="39" height="39" viewBox="0 0 39 39" fill="none" xmlns="http://www.w3.org/2000/svg">
    <circle cx="19.3837" cy="19.3837" r="19.3837" fill="#266DD3"/>
    <path d="M25.8856 9.5332C26.925 9.5332 27.8139 9.90227 28.552 10.6404C29.2901 11.3785 29.6592 12.2673 29.6592 13.3068V25.8856C29.6592 26.925 29.2901 27.8139 28.552 28.552C27.8139 29.2901 26.925 29.6592 25.8856 29.6592H23.4222V21.863H26.0297L26.4228 18.8231H23.4222V16.8839C23.4222 16.3947 23.5249 16.0278 23.7301 15.7833C23.9354 15.5387 24.3351 15.4164 24.929 15.4164L26.5276 15.4033V12.691C25.9773 12.6124 25.1998 12.5731 24.1953 12.5731C23.0073 12.5731 22.0573 12.9225 21.3454 13.6213C20.6335 14.3201 20.2775 15.3072 20.2775 16.5825V18.8231H17.657V21.863H20.2775V29.6592H13.3068C12.2673 29.6592 11.3785 29.2901 10.6404 28.552C9.90227 27.8139 9.5332 26.925 9.5332 25.8856V13.3068C9.5332 12.2673 9.90227 11.3785 10.6404 10.6404C11.3785 9.90227 12.2673 9.5332 13.3068 9.5332H25.8856Z" fill="white"/>
</svg>
