<svg width="24" height="24" viewBox="0 0 24 24" fill="none" xmlns="http://www.w3.org/2000/svg">
    <g clip-path="url(#clip0)">
        <path d="M19.5764 0H4.42348C3.64513 0 3.01172 0.633412 3.01172 1.41176V22.5882C3.01172 23.3666 3.64513 24 4.42348 24H19.5764C20.3548 24 20.9882 23.3666 20.9882 22.5882V1.41176C20.9882 0.633412 20.3548 0 19.5764 0ZM8.98819 19.8588H6.72937C6.33953 19.8588 6.02348 19.5428 6.02348 19.1529C6.02348 18.7631 6.33953 18.4471 6.72937 18.4471H8.98819C9.37802 18.4471 9.69407 18.7631 9.69407 19.1529C9.69407 19.5428 9.37802 19.8588 8.98819 19.8588ZM8.98819 16.8471H6.72937C6.33953 16.8471 6.02348 16.531 6.02348 16.1412C6.02348 15.7513 6.33953 15.4353 6.72937 15.4353H8.98819C9.37802 15.4353 9.69407 15.7513 9.69407 16.1412C9.69407 16.531 9.37802 16.8471 8.98819 16.8471ZM8.98819 13.8353H6.72937C6.33953 13.8353 6.02348 13.5192 6.02348 13.1294C6.02348 12.7396 6.33953 12.4235 6.72937 12.4235H8.98819C9.37802 12.4235 9.69407 12.7396 9.69407 13.1294C9.69407 13.5192 9.37802 13.8353 8.98819 13.8353ZM9.15426 10.9176H6.56325C6.26513 10.9176 6.02344 10.6016 6.02344 10.2118C6.02344 9.82193 6.26513 9.50588 6.56325 9.50588H9.15426C9.45238 9.50588 9.69407 9.82193 9.69407 10.2118C9.69407 10.6016 9.45238 10.9176 9.15426 10.9176ZM17.9764 19.5294C17.9764 20.0323 17.4659 20.3719 17.0034 20.1828L14.6352 19.2146L12.2671 20.1828C11.8032 20.3726 11.2941 20.0305 11.2941 19.5294C11.2941 12.7188 11.2882 13.1286 11.3065 13.0304C11.144 11.0636 12.7025 9.41177 14.6352 9.41177C16.4776 9.41177 17.9764 10.9106 17.9764 12.7529V19.5294ZM17.2705 7.81176H6.72937C6.33972 7.81176 6.02348 7.49553 6.02348 7.10588C6.02348 6.71624 6.33972 6.4 6.72937 6.4H17.2705C17.6602 6.4 17.9764 6.71624 17.9764 7.10588C17.9764 7.49553 17.6602 7.81176 17.2705 7.81176ZM17.2705 4.8H6.72937C6.33972 4.8 6.02348 4.48376 6.02348 4.09412C6.02348 3.70447 6.33972 3.38824 6.72937 3.38824H17.2705C17.6602 3.38824 17.9764 3.70447 17.9764 4.09412C17.9764 4.48376 17.6602 4.8 17.2705 4.8Z" fill="white"/>
        <path d="M14.6345 14.6826C15.7001 14.6826 16.5639 13.8187 16.5639 12.7531C16.5639 11.6876 15.7001 10.8237 14.6345 10.8237C13.5689 10.8237 12.7051 11.6876 12.7051 12.7531C12.7051 13.8187 13.5689 14.6826 14.6345 14.6826Z" fill="white"/>
        <path d="M12.7051 15.478V18.4781L14.3673 17.7985C14.5386 17.7285 14.7304 17.7285 14.9016 17.7985L16.5639 18.4781V15.478C15.4061 16.3001 13.8617 16.2993 12.7051 15.478Z" fill="white"/>
    </g>
    <defs>
        <clipPath id="clip0">
            <rect width="24" height="24" fill="white"/>
        </clipPath>
    </defs>
</svg>
