<svg width="22" height="24" viewBox="0 0 22 24" fill="none" xmlns="http://www.w3.org/2000/svg">
    <path d="M19.8878 1.70672C17.8031 -0.198849 15.4433 -0.19625 13.6794 0.23134C11.9221 0.65724 10.0783 0.65724 8.32102 0.23134C6.55712 -0.19625 4.19732 -0.198849 2.11253 1.70672C-1.83755 5.31732 1.34104 11.767 2.29773 12.878C3.25441 13.9889 3.28521 15.4702 3.96416 18.4945C4.6431 21.5188 5.50712 24.3887 7.23528 23.9567C8.96345 23.5247 9.42639 21.4263 9.8584 18.618C9.88816 18.4248 9.91909 18.2437 9.95106 18.0734C10.1707 16.9058 11.8296 16.9058 12.0492 18.0734C12.0812 18.2435 12.1123 18.4248 12.142 18.618C12.574 21.4263 13.037 23.5247 14.7652 23.9567C16.4933 24.3887 17.3573 21.5188 18.0363 18.4945C18.7152 15.4702 18.746 13.9889 19.7027 12.878C20.6594 11.767 23.838 5.31732 19.8878 1.70672ZM7.82273 3.10945C7.77491 3.46426 7.44908 3.71353 7.09453 3.66726C6.96755 3.65154 4.1504 3.34053 3.3589 6.41605C3.28339 6.70926 3.01943 6.90408 2.73 6.90408C2.67632 6.90408 2.62186 6.89745 2.56754 6.88341C2.22001 6.794 2.01076 6.43971 2.10018 6.09218C2.96744 2.72215 5.8579 2.18993 7.26518 2.37878C7.62089 2.4266 7.87043 2.75373 7.82273 3.10945Z" fill="white"/>
</svg>
