<svg width="24" height="24" viewBox="0 0 24 24" fill="none" xmlns="http://www.w3.org/2000/svg">
    <g clip-path="url(#clip0)">
        <path d="M18.25 24H17.75C16.785 24 16 23.215 16 22.25V20H13.75C12.785 20 12 19.215 12 18.25V17.75C12 16.785 12.785 16 13.75 16H16V13.75C16 12.785 16.785 12 17.75 12H18.25C19.215 12 20 12.785 20 13.75V16H22.25C23.215 16 24 16.785 24 17.75V18.25C24 19.215 23.215 20 22.25 20H20V22.25C20 23.215 19.215 24 18.25 24Z" fill="white"/>
        <path d="M9 10C11.7614 10 14 7.76142 14 5C14 2.23858 11.7614 0 9 0C6.23858 0 4 2.23858 4 5C4 7.76142 6.23858 10 9 10Z" fill="white"/>
        <path d="M10 18.25V17.75C10 15.682 11.682 14 13.75 14H14V13.75C14 13.198 14.127 12.678 14.342 12.205C13.912 12.085 13.468 12 13 12H5C2.239 12 0 14.239 0 17V20.25C0 20.664 0.336 21 0.75 21H11.22C10.475 20.314 10 19.34 10 18.25Z" fill="white"/>
    </g>
    <defs>
        <clipPath id="clip0">
            <rect width="24" height="24" fill="white"/>
        </clipPath>
    </defs>
</svg>
