<svg width="18" height="24" viewBox="0 0 18 24" fill="none" xmlns="http://www.w3.org/2000/svg">
    <path d="M5.4144 3.0042V2.11234C5.4144 1.91751 5.57286 1.75894 5.76768 1.75894H6.33507C6.93056 1.75894 7.47396 1.39729 7.71916 0.837477C7.94221 0.328726 8.44499 0 8.99987 0C9.55475 0 10.0576 0.328726 10.2805 0.837363C10.5259 1.39717 11.0691 1.75883 11.6646 1.75883H12.2319C12.4268 1.75883 12.5852 1.91728 12.5852 2.11222V3.00409C12.5852 3.19891 12.4268 3.35748 12.2319 3.35748H5.76757C5.57286 3.35748 5.4144 3.19903 5.4144 3.0042ZM4.17614 19.6656H5.83033V18.0114H4.17614V19.6656ZM4.17614 9.71768H5.83033V8.06349H4.17614V9.71768ZM17.3006 5.34521V21.7021C17.3006 22.9691 16.2699 23.9999 15.0029 23.9999H2.99697C1.72992 23.9999 0.699219 22.9691 0.699219 21.7021V5.34521C0.699219 4.07827 1.72992 3.04746 2.99697 3.04746H4.2692C4.29237 3.85476 4.95487 4.50487 5.76768 4.50487H12.2321C13.0449 4.50487 13.7074 3.85476 13.7305 3.04746H15.0028C16.2699 3.04746 17.3006 4.07827 17.3006 5.34521ZM7.88473 8.88077C7.88473 9.19757 8.14151 9.45446 8.45842 9.45446H13.6369C13.9538 9.45446 14.2106 9.19757 14.2106 8.88077C14.2106 8.56398 13.9538 8.30708 13.6369 8.30708H8.45842C8.14151 8.30708 7.88473 8.56398 7.88473 8.88077ZM7.88473 13.9121C7.88473 14.2289 8.14151 14.4858 8.45842 14.4858H13.0605C13.3774 14.4858 13.6342 14.2289 13.6342 13.9121C13.6342 13.5953 13.3774 13.3384 13.0605 13.3384H8.45842C8.14151 13.3384 7.88473 13.5952 7.88473 13.9121ZM6.97772 17.4377C6.97772 17.121 6.72093 16.8641 6.40402 16.8641H3.60245C3.28554 16.8641 3.02876 17.121 3.02876 17.4377V20.2393C3.02876 20.5561 3.28554 20.813 3.60245 20.813H6.40402C6.72093 20.813 6.97772 20.5561 6.97772 20.2393V17.4377ZM6.97772 12.4637C6.97772 12.1469 6.72093 11.89 6.40402 11.89H3.60245C3.28554 11.89 3.02876 12.1469 3.02876 12.4637V15.2653C3.02876 15.5821 3.28554 15.839 3.60245 15.839H6.40402C6.72093 15.839 6.97772 15.5821 6.97772 15.2653V12.4637ZM6.97772 7.48979C6.97772 7.173 6.72093 6.9161 6.40402 6.9161H3.60245C3.28554 6.9161 3.02876 7.173 3.02876 7.48979V10.2914C3.02876 10.6082 3.28554 10.8651 3.60245 10.8651H6.40402C6.72093 10.8651 6.97772 10.6082 6.97772 10.2914V7.48979ZM14.498 18.9432C14.498 18.6264 14.2412 18.3695 13.9243 18.3695H8.45842C8.14151 18.3695 7.88473 18.6264 7.88473 18.9432C7.88473 19.26 8.14151 19.5169 8.45842 19.5169H13.9245C14.2412 19.5169 14.498 19.26 14.498 18.9432ZM4.17614 14.6916H5.83033V13.0374H4.17614V14.6916Z" fill="white"/>
</svg>
