<svg width="39" height="39" viewBox="0 0 39 39" fill="none" xmlns="http://www.w3.org/2000/svg">
<path d="M19.385 0C8.68062 0 0 8.68062 0 19.385C0 30.0894 8.68062 38.77 19.385 38.77C30.0894 38.77 38.77 30.0894 38.77 19.385C38.77 8.68062 30.0894 0 19.385 0ZM29.1101 14.832V17.4568C27.8724 17.4573 26.6698 17.2147 25.5357 16.7362C24.8064 16.4283 24.1269 16.0316 23.5054 15.5522L23.5241 23.6313C23.5163 25.4505 22.7965 27.1598 21.4939 28.4473C20.4338 29.4953 19.0904 30.1618 17.6344 30.3775C17.2923 30.4282 16.9442 30.4541 16.592 30.4541C15.0334 30.4541 13.5538 29.9492 12.3433 29.0177C12.1156 28.8423 11.8977 28.6522 11.6903 28.4473C10.2785 27.052 9.55052 25.1609 9.67312 23.1714C9.76663 21.6571 10.3729 20.2128 11.3837 19.0808C12.721 17.5829 14.5918 16.7514 16.592 16.7514C16.9442 16.7514 17.2923 16.7779 17.6344 16.8285V17.799V20.4987C17.31 20.3917 16.9636 20.3328 16.6029 20.3328C14.7754 20.3328 13.2969 21.8238 13.3242 23.6527C13.3416 24.8228 13.9807 25.8457 14.9235 26.4095C15.3665 26.6745 15.8762 26.8387 16.4202 26.8685C16.8463 26.8919 17.2555 26.8326 17.6344 26.7075C18.9401 26.2761 19.882 25.0497 19.882 23.6033L19.8864 18.1931V8.31586H23.5011C23.5045 8.67403 23.5409 9.02349 23.6084 9.36212C23.8813 10.7328 24.6539 11.9219 25.7291 12.7326C26.6667 13.4398 27.8342 13.859 29.0996 13.859C29.1004 13.859 29.1109 13.859 29.11 13.8582V14.832H29.1101Z" fill="#266DD3"/>
</svg>
