<svg width="39" height="39" viewBox="0 0 39 39" fill="none" xmlns="http://www.w3.org/2000/svg">
<circle cx="19.3837" cy="19.3837" r="19.3837" fill="#266DD3"/>
<path d="M22.7209 24.0007C22.7202 23.8743 22.683 23.7427 22.6362 23.6245C22.5737 23.4691 22.4399 23.3918 22.2719 23.3754C22.0748 23.3561 21.9172 23.4356 21.7745 23.562C21.7172 23.6118 21.6912 23.6862 21.6912 23.6862L21.6942 27.6987V27.7976C21.6942 27.7976 21.7284 27.8437 21.7336 27.8497C21.8496 27.9753 21.9849 28.0749 22.1581 28.1106C22.4436 28.1694 22.6451 28.0504 22.7008 27.7857C22.715 27.7196 22.7232 27.6512 22.7232 27.5835C22.7246 26.3887 22.7269 25.1947 22.7209 24.0007ZM22.7209 24.0007C22.7202 23.8743 22.683 23.7427 22.6362 23.6245C22.5737 23.4691 22.4399 23.3918 22.2719 23.3754C22.0748 23.3561 21.9172 23.4356 21.7745 23.562C21.7172 23.6118 21.6912 23.6862 21.6912 23.6862L21.6942 27.6987V27.7976C21.6942 27.7976 21.7284 27.8437 21.7336 27.8497C21.8496 27.9753 21.9849 28.0749 22.1581 28.1106C22.4436 28.1694 22.6451 28.0504 22.7008 27.7857C22.715 27.7196 22.7232 27.6512 22.7232 27.5835C22.7246 26.3887 22.7269 25.1947 22.7209 24.0007ZM27.2138 17.9495C22.4652 17.8476 17.7143 17.8476 12.965 17.9495C11.3174 17.9844 10 19.3316 10 20.9799V28.3969C10 30.0459 11.3174 31.3931 12.965 31.428C17.7143 31.5299 22.4652 31.5299 27.2138 31.428C28.8621 31.3931 30.1795 30.0459 30.1795 28.3969V20.9799C30.1795 19.3317 28.8621 17.9844 27.2138 17.9495ZM14.3598 29.0728H12.9903V21.3309H11.5725V20.0358H15.7805V21.3279H14.3598V29.0728ZM19.2608 25.8594V29.0734H18.0482V28.3389C18.0043 28.3857 17.9798 28.411 17.9567 28.437C17.6957 28.7314 17.3998 28.9768 17.0222 29.1069C16.8378 29.1701 16.6482 29.1916 16.4541 29.1582C16.1895 29.1143 16.0118 28.9619 15.9047 28.721C15.8051 28.4987 15.7798 28.2608 15.7791 28.0214C15.7761 27.1367 15.7776 22.4542 15.7776 22.4089H16.9872C16.9894 22.4498 16.9939 25.811 16.9946 27.4504C16.9946 27.5396 16.9954 27.6311 17.0132 27.7181C17.0578 27.9381 17.2266 28.0326 17.4385 27.9552C17.6824 27.866 17.8682 27.698 18.0244 27.4965C18.0474 27.4675 18.0474 27.4155 18.0474 27.3738V22.4015L19.2608 22.3985C19.2608 22.3986 19.2608 24.7456 19.2608 25.8594ZM23.8741 28.4311C23.712 28.9188 23.3551 29.1671 22.8421 29.1619C22.425 29.1582 22.0867 28.9924 21.8079 28.6898C21.7767 28.6563 21.6905 28.5649 21.6905 28.5649V29.0719H20.4756V20.035H21.6905C21.6905 20.997 21.6905 23.0096 21.6905 23.0096C21.6905 23.0096 21.7589 22.8728 21.8213 22.8022C22.0094 22.5918 22.2384 22.429 22.5209 22.3576C22.9871 22.2409 23.5246 22.3851 23.7804 22.9301C23.9313 23.252 23.9737 23.5955 23.9737 23.9449C23.9759 25.2081 23.9759 26.4713 23.9744 27.7344C23.9737 27.9709 23.9492 28.2044 23.8741 28.4311ZM28.361 28.1769C28.1505 28.7932 27.7156 29.1352 27.0777 29.2289C26.6822 29.2869 26.2904 29.2787 25.9194 29.1107C25.4116 28.8817 25.1238 28.4676 25.0004 27.9404C24.9432 27.6951 24.9149 27.4379 24.912 27.1858C24.9023 26.1962 24.9067 25.2059 24.909 24.2164C24.9097 23.6989 25.0331 23.2216 25.3878 22.8253C25.7922 22.3725 26.3097 22.2038 26.9008 22.2417C27.0785 22.2528 27.2599 22.2818 27.4286 22.3376C28.0033 22.5264 28.3104 22.9569 28.4308 23.5279C28.4769 23.748 28.494 23.9762 28.4978 24.2015C28.5074 24.7294 28.494 25.8929 28.494 25.8929H26.1677V27.5605C26.1677 27.8601 26.4101 28.1025 26.7097 28.1025C27.0086 28.1025 27.2509 27.8601 27.2509 27.5605V26.7033H28.5007C28.5007 26.7032 28.5193 27.7152 28.361 28.1769ZM27.2509 23.9227C27.2509 23.6238 27.0086 23.3807 26.7097 23.3807C26.4101 23.3807 26.1677 23.6238 26.1677 23.9227V24.8587H27.2509V23.9227ZM22.6362 23.6245C22.5737 23.4692 22.4399 23.3918 22.2719 23.3755C22.0748 23.3562 21.9172 23.4357 21.7745 23.5621C21.7172 23.6119 21.6912 23.6863 21.6912 23.6863L21.6942 27.6988V27.7977C21.6942 27.7977 21.7284 27.8438 21.7336 27.8497C21.8496 27.9754 21.9849 28.075 22.1581 28.1107C22.4436 28.1694 22.6451 28.0505 22.7008 27.7858C22.715 27.7196 22.7232 27.6512 22.7232 27.5836C22.7246 26.3888 22.7269 25.1948 22.7209 24.0007C22.7202 23.8743 22.683 23.7427 22.6362 23.6245Z" fill="white"/>
<path d="M25.741 9.37317L25.7406 16.0826H24.4974L24.4989 15.3618C24.3614 15.4972 24.2441 15.6237 24.1152 15.7373C23.8866 15.9386 23.6277 16.0887 23.3249 16.148C22.86 16.2389 22.464 16.0919 22.3158 15.6104C22.2664 15.4501 22.2366 15.2772 22.2354 15.1098V9.37317H23.4692V14.4899C23.4692 14.5577 23.4747 14.6262 23.4866 14.6927C23.524 14.9035 23.6799 15.0028 23.8829 14.9324C24.1304 14.8467 24.3192 14.6754 24.4795 14.4734C24.5022 14.4446 24.4981 14.3908 24.4981 14.3485V9.37317H25.741Z" fill="white"/>
<path d="M15.4581 10.5391C15.1882 9.40151 14.6228 7 14.6228 7H13.208C13.208 7 14.295 10.6049 14.7811 12.2126C14.7985 12.2707 14.8066 12.3339 14.8066 12.3948L14.806 16.0812H16.1106L16.1101 12.3948C16.1101 12.3339 16.1181 12.2707 16.1356 12.2126C16.6217 10.6049 17.7087 7 17.7087 7H16.2939C16.2939 7 15.7284 9.40151 15.4586 10.5391H15.4581Z" fill="white"/>
<path d="M19.412 9.2052C18.4288 9.2052 17.6318 10.0022 17.6318 10.9854V14.4693C17.6318 15.4524 18.4288 16.2494 19.412 16.2494C20.3952 16.2494 21.1922 15.4524 21.1922 14.4693V10.9854C21.1923 10.0022 20.3952 9.2052 19.412 9.2052ZM19.9258 14.5396C19.9258 14.8228 19.6953 15.0533 19.4121 15.0533C19.1289 15.0533 18.8984 14.8228 18.8984 14.5396V10.915C18.8984 10.6317 19.1289 10.4013 19.4121 10.4013C19.6953 10.4013 19.9258 10.6318 19.9258 10.915V14.5396Z" fill="white"/>
</svg>
